<?xml version="1.0" encoding="UTF-8"?>
<svg version="1.1" xmlns="http://www.w3.org/2000/svg" width="500" height="500">
<path d="M0 0 C82.5 0 165 0 250 0 C250.04033135 62.94827337 250.04033135 62.94827337 250.04882812 89.17382812 C250.05078614 95.17716474 250.05280666 101.18050133 250.05493164 107.18383789 C250.05519539 107.93630682 250.05545914 108.68877576 250.05573088 109.46404678 C250.06008572 121.62803522 250.06797257 133.79201896 250.0771528 145.95600461 C250.08648896 158.43021603 250.09205553 170.90442499 250.09408849 183.37863976 C250.0954638 191.08211203 250.09981479 198.78557101 250.10791647 206.48903919 C250.11380415 212.38607075 250.11445906 218.28309541 250.11310768 224.18013 C250.11338421 226.60660954 250.11539192 229.03308956 250.11920547 231.45956612 C250.12413586 234.75666802 250.12300072 238.05371174 250.12025452 241.35081482 C250.12462378 242.81138759 250.12462378 242.81138759 250.12908131 244.30146688 C250.12709026 245.17779022 250.12509921 246.05411356 250.12304783 246.95699215 C250.12342755 247.71909085 250.12380727 248.48118955 250.1241985 249.26638216 C250 251 250 251 249 252 C247.64853803 252.09807687 246.29202704 252.12798229 244.93701172 252.12939453 C244.07034882 252.13254669 243.20368591 252.13569885 242.3107605 252.13894653 C241.36000641 252.1369223 240.40925232 252.13489807 239.4296875 252.1328125 C238.44243683 252.13376923 237.45518616 252.13472595 236.4380188 252.13571167 C234.32781918 252.13639502 232.2176175 252.13453006 230.10742188 252.13037109 C226.96479155 252.1251492 223.82231257 252.13024425 220.6796875 252.13671875 C206.76313451 252.14083778 192.89714335 251.72711147 179 251 C180.37050374 247.91058806 181.91877079 245.85806987 184.34814453 243.52001953 C185.36897629 242.52846359 185.36897629 242.52846359 186.41043091 241.51687622 C187.14381683 240.81263519 187.87720276 240.10839417 188.6328125 239.3828125 C190.17635991 237.87428979 191.71931066 236.36515636 193.26171875 234.85546875 C195.69591018 232.48327613 198.13433508 230.11601718 200.58349609 227.75927734 C202.94679969 225.48056414 205.29086153 223.1834377 207.6328125 220.8828125 C208.37024689 220.18261993 209.10768127 219.48242737 209.86746216 218.76101685 C213.87468954 214.90709224 213.87468954 214.90709224 215.52001953 209.75268555 C214.89996232 206.38425968 214.89996232 206.38425968 214.046875 203.07421875 C213.84199463 202.36934326 213.63711426 201.66446777 213.42602539 200.93823242 C213.20293701 200.19549072 212.97984863 199.45274902 212.75 198.6875 C211.01963493 192.71679644 209.42574885 186.75250712 208.0625 180.6875 C205.79319487 170.67670458 202.89364993 160.84507848 200 151 C199.59007812 151.5053125 199.18015625 152.010625 198.7578125 152.53125 C198.21898437 153.1809375 197.68015625 153.830625 197.125 154.5 C196.59132813 155.1496875 196.05765625 155.799375 195.5078125 156.46875 C195.01023437 156.9740625 194.51265625 157.479375 194 158 C193.34 158 192.68 158 192 158 C192 158.66 192 159.32 192 160 C190.35546875 161.5859375 190.35546875 161.5859375 188.1875 163.375 C185.93749143 165.23566282 184.09649715 166.86872703 182.36328125 169.2265625 C181.91339844 169.81179687 181.46351563 170.39703125 181 171 C180.34 171 179.68 171 179 171 C179 171.66 179 172.32 179 173 C177.42578125 174.515625 177.42578125 174.515625 175.3125 176.25 C172.75365111 178.41897174 170.66063189 180.40724173 168.5 183 C165.87671496 186.14794205 163.04536855 188.61439532 159.9296875 191.25390625 C158.12850996 192.8837167 156.63421396 194.53981973 155.125 196.4375 C154.42375 197.283125 153.7225 198.12875 153 199 C152.34 199 151.68 199 151 199 C151 199.66 151 200.32 151 201 C149.42578125 202.515625 149.42578125 202.515625 147.3125 204.25 C144.75365111 206.41897174 142.66063189 208.40724173 140.5 211 C137.88354849 214.13974181 135.07969993 216.66148085 131.96484375 219.2890625 C131.31644531 219.85367188 130.66804687 220.41828125 130 221 C128.84564453 221.87205078 128.84564453 221.87205078 127.66796875 222.76171875 C125.6178154 224.98774613 125.6178154 224.98774613 126.3359375 228.35546875 C126.67882812 229.62003906 127.02171875 230.88460937 127.375 232.1875 C129.39347548 240.60288097 128.93154751 245.94785216 124.625 253.4375 C122.78655865 256.37307571 121.19295346 257.64808992 118 259 C118 259.66 118 260.32 118 261 C110.43097203 266.15338075 101.86730361 266.236779 93 265 C86.54139503 263.02750713 81.57022899 258.68719169 78 253 C74.29002427 245.45357209 73.82985143 237.44581657 76.0625 229.375 C78.30192137 223.38905851 82.4396567 218.92025747 87.5 215.125 C96.26291467 211.1816884 104.0074232 211.23998049 113.15234375 213.5625 C115.00790632 214.07680504 115.00790632 214.07680504 117 214 C117 213.34 117 212.68 117 212 C117.66 212 118.32 212 119 212 C119 211.34 119 210.68 119 210 C119.66 210 120.32 210 121 210 C121 209.34 121 208.68 121 208 C121.66 208 122.32 208 123 208 C123 207.34 123 206.68 123 206 C123.66 206 124.32 206 125 206 C125 205.34 125 204.68 125 204 C126.375 202.375 126.375 202.375 128 201 C128.66 201 129.32 201 130 201 C130 200.34 130 199.68 130 199 C130.66 199 131.32 199 132 199 C132 198.34 132 197.68 132 197 C132.66 197 133.32 197 134 197 C134 196.34 134 195.68 134 195 C134.66 195 135.32 195 136 195 C136 194.34 136 193.68 136 193 C136.66 193 137.32 193 138 193 C138 192.34 138 191.68 138 191 C138.66 191 139.32 191 140 191 C140.33 190.01 140.66 189.02 141 188 C141.66 188 142.32 188 143 188 C143 187.34 143 186.68 143 186 C143.66 186 144.32 186 145 186 C145 185.34 145 184.68 145 184 C145.66 184 146.32 184 147 184 C147 183.34 147 182.68 147 182 C147.66 182 148.32 182 149 182 C149 181.34 149 180.68 149 180 C149.66 180 150.32 180 151 180 C151 179.34 151 178.68 151 178 C151.66 178 152.32 178 153 178 C153.33 177.01 153.66 176.02 154 175 C154.66 175 155.32 175 156 175 C156 174.34 156 173.68 156 173 C156.66 173 157.32 173 158 173 C158 172.34 158 171.68 158 171 C158.66 171 159.32 171 160 171 C160 170.34 160 169.68 160 169 C160.66 169 161.32 169 162 169 C162 168.34 162 167.68 162 167 C162.66 167 163.32 167 164 167 C164 166.34 164 165.68 164 165 C164.66 165 165.32 165 166 165 C166 164.34 166 163.68 166 163 C166.66 163 167.32 163 168 163 C168.33 162.01 168.66 161.02 169 160 C169.66 160 170.32 160 171 160 C171 159.34 171 158.68 171 158 C171.66 158 172.32 158 173 158 C173 157.34 173 156.68 173 156 C173.66 156 174.32 156 175 156 C175 155.34 175 154.68 175 154 C175.66 154 176.32 154 177 154 C177 153.34 177 152.68 177 152 C177.66 152 178.32 152 179 152 C179 151.34 179 150.68 179 150 C179.66 150 180.32 150 181 150 C181.33 149.01 181.66 148.02 182 147 C182.66 147 183.32 147 184 147 C184 146.34 184 145.68 184 145 C184.66 145 185.32 145 186 145 C186 144.34 186 143.68 186 143 C186.66 143 187.32 143 188 143 C188 142.34 188 141.68 188 141 C188.66 141 189.32 141 190 141 C190 140.34 190 139.68 190 139 C190.66 139 191.32 139 192 139 C192 138.34 192 137.68 192 137 C192.66 137 193.32 137 194 137 C194 136.34 194 135.68 194 135 C194.66 135 195.32 135 196 135 C193.52959183 124.21122707 190.95533962 113.50093434 187.73999023 102.90795898 C186.4641793 98.67433311 185.34989272 94.44093133 184.375 90.125 C184.02115234 88.58585937 184.02115234 88.58585937 183.66015625 87.015625 C183.21269749 84.97161218 182.80496625 82.91857149 182.43359375 80.859375 C182.22863281 79.87453125 182.02367187 78.8896875 181.8125 77.875 C181.65394531 77.00617188 181.49539063 76.13734375 181.33203125 75.2421875 C179.20674661 71.66472889 175.80145269 71.08029748 172 70 C171.11304443 69.74524902 170.22608887 69.49049805 169.31225586 69.22802734 C166.23599739 68.37349673 163.1512624 67.55812932 160.0625 66.75 C149.80094663 64.03113942 139.56960568 61.22314188 129.36157227 58.30957031 C123.60444968 56.67935366 117.85435199 55.2385368 112 54 C112 54.66 112 55.32 112 56 C111.34 56 110.68 56 110 56 C109.67 56.99 109.34 57.98 109 59 C108.34 59 107.68 59 107 59 C107 59.66 107 60.32 107 61 C106.34 61 105.68 61 105 61 C105 61.66 105 62.32 105 63 C104.34 63 103.68 63 103 63 C103 63.66 103 64.32 103 65 C102.34 65 101.68 65 101 65 C101 65.66 101 66.32 101 67 C100.34 67 99.68 67 99 67 C99 67.66 99 68.32 99 69 C98.34 69 97.68 69 97 69 C97 69.66 97 70.32 97 71 C96.34 71 95.68 71 95 71 C94.505 72.485 94.505 72.485 94 74 C93.34 74 92.68 74 92 74 C92 74.66 92 75.32 92 76 C91.34 76 90.68 76 90 76 C90 76.66 90 77.32 90 78 C89.34 78 88.68 78 88 78 C88 78.66 88 79.32 88 80 C87.34 80 86.68 80 86 80 C86 80.66 86 81.32 86 82 C85.34 82 84.68 82 84 82 C84 82.66 84 83.32 84 84 C83.34 84 82.68 84 82 84 C82 84.66 82 85.32 82 86 C80.625 87.625 80.625 87.625 79 89 C78.34 89 77.68 89 77 89 C77 89.66 77 90.32 77 91 C76.34 91 75.68 91 75 91 C75 91.66 75 92.32 75 93 C74.34 93 73.68 93 73 93 C73 93.66 73 94.32 73 95 C72.34 95 71.68 95 71 95 C71 95.66 71 96.32 71 97 C70.34 97 69.68 97 69 97 C69 97.66 69 98.32 69 99 C68.34 99 67.68 99 67 99 C66.505 100.485 66.505 100.485 66 102 C65.34 102 64.68 102 64 102 C64 102.66 64 103.32 64 104 C63.34 104 62.68 104 62 104 C62 104.66 62 105.32 62 106 C61.34 106 60.68 106 60 106 C60 106.66 60 107.32 60 108 C59.34 108 58.68 108 58 108 C58 108.66 58 109.32 58 110 C57.34 110 56.68 110 56 110 C56 110.66 56 111.32 56 112 C55.34 112 54.68 112 54 112 C53.505 113.485 53.505 113.485 53 115 C52.34 115 51.68 115 51 115 C51 115.66 51 116.32 51 117 C50.34 117 49.68 117 49 117 C49 117.66 49 118.32 49 119 C48.34 119 47.68 119 47 119 C47 119.66 47 120.32 47 121 C46.34 121 45.68 121 45 121 C45 121.66 45 122.32 45 123 C44.34 123 43.68 123 43 123 C43 123.66 43 124.32 43 125 C42.34 125 41.68 125 41 125 C41 125.66 41 126.32 41 127 C40.34 127 39.68 127 39 127 C38.67 127.99 38.34 128.98 38 130 C37.34 130 36.68 130 36 130 C36.33 131.216875 36.66 132.43375 37 133.6875 C38.81658033 141.88806261 38.98367447 150.10273463 36 158 C35.34 158 34.68 158 34 158 C33.938125 158.556875 33.87625 159.11375 33.8125 159.6875 C32.0676344 164.65365593 27.89462418 167.28291145 23.5 169.8125 C16.69241868 173.01845484 9.62714839 173.2362083 2.3828125 171.30078125 C-2.84606346 169.21451256 -6.37598312 166.27448144 -10 162 C-10 161.34 -10 160.68 -10 160 C-10.66 160 -11.32 160 -12 160 C-14.4579237 154.96648604 -15.54902433 150.77369225 -15.5 145.125 C-15.49935547 144.42826172 -15.49871094 143.73152344 -15.49804688 143.01367188 C-15.32417765 136.9843359 -13.66850672 132.71665149 -10 128 C-9.34 128 -8.68 128 -8 128 C-8 127.34 -8 126.68 -8 126 C-7.34 126 -6.68 126 -6 126 C-6 125.34 -6 124.68 -6 124 C4.16559832 118.35475995 10.71210748 117.07276677 22 120 C22.99 120.33 23.98 120.66 25 121 C25.33 120.34 25.66 119.68 26 119 C26.66 119 27.32 119 28 119 C28 118.34 28 117.68 28 117 C29.57421875 115.484375 29.57421875 115.484375 31.6875 113.75 C34.35349133 111.49924272 36.71010091 109.29950455 38.875 106.5625 C39.926875 105.2940625 39.926875 105.2940625 41 104 C41.66 104 42.32 104 43 104 C43 103.34 43 102.68 43 102 C44.64453125 100.4140625 44.64453125 100.4140625 46.8125 98.625 C49.06250857 96.76433718 50.90350285 95.13127297 52.63671875 92.7734375 C53.08660156 92.18820313 53.53648437 91.60296875 54 91 C54.66 91 55.32 91 56 91 C56 90.34 56 89.68 56 89 C57.57421875 87.484375 57.57421875 87.484375 59.6875 85.75 C62.35349133 83.49924272 64.71010091 81.29950455 66.875 78.5625 C67.926875 77.2940625 67.926875 77.2940625 69 76 C69.66 76 70.32 76 71 76 C71 75.34 71 74.68 71 74 C72.64453125 72.4140625 72.64453125 72.4140625 74.8125 70.625 C77.06250857 68.76433718 78.90350285 67.13127297 80.63671875 64.7734375 C81.08660156 64.18820313 81.53648437 63.60296875 82 63 C82.66 63 83.32 63 84 63 C84 62.34 84 61.68 84 61 C85.64453125 59.4140625 85.64453125 59.4140625 87.8125 57.625 C90.06250857 55.76433718 91.90350285 54.13127297 93.63671875 51.7734375 C94.08660156 51.18820313 94.53648437 50.60296875 95 50 C95.66 50 96.32 50 97 50 C97 49.34 97 48.68 97 48 C95.91332031 47.90203125 94.82664062 47.8040625 93.70703125 47.703125 C88.18641137 47.00986604 82.99642027 45.36805822 77.6875 43.75 C75.56043345 43.11668113 73.43282061 42.48519438 71.3046875 41.85546875 C70.24862305 41.54270996 69.19255859 41.22995117 68.10449219 40.90771484 C63.52230308 39.56793983 58.92451383 38.29529253 54.3125 37.0625 C53.15657349 36.74587402 53.15657349 36.74587402 51.97729492 36.42285156 C46.53774822 34.91690058 46.53774822 34.91690058 41 35 C38.75384228 36.83430272 36.86948324 38.59448416 34.89453125 40.6875 C34.32925217 41.26459717 33.76397308 41.84169434 33.18156433 42.4362793 C31.37963747 44.27939724 29.59542606 46.13851083 27.8125 48 C26.01634117 49.85877369 24.21668247 51.71390339 22.41130066 53.5637207 C21.28902861 54.71530279 20.17256512 55.87257888 19.06245422 57.03588867 C17.74602514 58.39484428 16.37739614 59.70287789 15 61 C14.34 61 13.68 61 13 61 C13 61.66 13 62.32 13 63 C12.34 63 11.68 63 11 63 C10.6596875 63.8353125 10.6596875 63.8353125 10.3125 64.6875 C8.62449964 67.66159588 6.53323483 69.72008865 4 72 C3.34 72 2.68 72 2 72 C2 72.66 2 73.32 2 74 C1.34 74 0.68 74 0 74 C0 49.58 0 25.16 0 0 Z " fill="#063679" transform="translate(181,77)"/>
<path d="M0 0 C1.24132187 0.00222061 2.48264374 0.00444122 3.76158142 0.00672913 C4.44447739 0.0065831 5.12737335 0.00643707 5.83096313 0.00628662 C8.09815092 0.00698575 10.36525752 0.01477811 12.63243103 0.02259827 C14.20041865 0.02446245 15.76840685 0.02588635 17.33639526 0.02688599 C21.47103981 0.03071117 25.60564944 0.04054146 29.74028015 0.05158997 C33.95627876 0.06180407 38.172283 0.0663836 42.38829041 0.07142639 C50.66630125 0.08216373 58.94428368 0.09924015 67.22227478 0.12025452 C66.48686713 3.45410255 65.52358003 5.54279263 63.22227478 8.12025452 C62.56227478 8.12025452 61.90227478 8.12025452 61.22227478 8.12025452 C61.22227478 8.78025452 61.22227478 9.44025452 61.22227478 10.12025452 C60.56227478 10.12025452 59.90227478 10.12025452 59.22227478 10.12025452 C59.22227478 10.78025452 59.22227478 11.44025452 59.22227478 12.12025452 C57.86778259 13.50404358 57.86778259 13.50404358 55.92539978 15.13587952 C55.19514587 15.7604303 54.46489197 16.38498108 53.71250916 17.02845764 C51.98955955 18.47573531 50.26133131 19.91674355 48.52891541 21.35267639 C36.87396923 30.4264124 36.87396923 30.4264124 29.57481384 42.65882874 C29.57276086 47.7594711 31.29924579 52.23880804 33.28965759 56.87757874 C34.70725614 60.28649502 35.55262772 63.80220677 36.47227478 67.37025452 C36.88961387 68.84383047 37.31040118 70.31643268 37.73399353 71.78822327 C39.69502434 78.72357614 41.48513668 85.70420273 43.28477478 92.68275452 C43.45951324 93.35933105 43.63425171 94.03590759 43.81428528 94.73298645 C45.80912603 102.46718386 47.7546622 110.20850006 49.53477478 117.99525452 C50.61242951 122.6870526 51.83580425 127.18626184 53.44493103 131.71791077 C55.88144837 139.24785128 57.5321701 147.08102655 59.29649353 154.79212952 C59.47253113 155.55718811 59.64856873 156.3222467 59.8299408 157.11048889 C60.16741814 158.58462307 60.50016429 160.05985073 60.82749939 161.53627014 C61.61183778 164.97171347 62.44123785 168.06254509 64.22227478 171.12025452 C64.77657166 170.54275452 65.33086853 169.96525452 65.90196228 169.37025452 C66.62641541 168.62775452 67.35086853 167.88525452 68.09727478 167.12025452 C68.81657166 166.37775452 69.53586853 165.63525452 70.27696228 164.87025452 C72.22227478 163.12025452 72.22227478 163.12025452 74.22227478 163.12025452 C74.22227478 162.46025452 74.22227478 161.80025452 74.22227478 161.12025452 C74.88227478 161.12025452 75.54227478 161.12025452 76.22227478 161.12025452 C76.45946228 160.55822327 76.69664978 159.99619202 76.94102478 159.41712952 C78.51175175 156.6013141 80.43698943 154.64070036 82.72227478 152.37025452 C83.91336853 151.17142639 83.91336853 151.17142639 85.12852478 149.94837952 C87.22227478 148.12025452 87.22227478 148.12025452 89.22227478 148.12025452 C89.45946228 147.55822327 89.69664978 146.99619202 89.94102478 146.41712952 C91.51175175 143.6013141 93.43698943 141.64070036 95.72227478 139.37025452 C96.91336853 138.17142639 96.91336853 138.17142639 98.12852478 136.94837952 C100.22227478 135.12025452 100.22227478 135.12025452 102.22227478 135.12025452 C102.43883728 134.57884827 102.65539978 134.03744202 102.87852478 133.47962952 C104.68727475 130.30380108 107.13951277 127.9129737 109.72227478 125.37025452 C110.22114197 124.86365295 110.72000916 124.35705139 111.23399353 123.83509827 C114.96886339 120.12025452 114.96886339 120.12025452 117.22227478 120.12025452 C117.45946228 119.55822327 117.69664978 118.99619202 117.94102478 118.41712952 C119.51175175 115.6013141 121.43698943 113.64070036 123.72227478 111.37025452 C124.51633728 110.57103577 125.31039978 109.77181702 126.12852478 108.94837952 C128.22227478 107.12025452 128.22227478 107.12025452 130.22227478 107.12025452 C130.43883728 106.57884827 130.65539978 106.03744202 130.87852478 105.47962952 C132.68727475 102.30380108 135.13951277 99.9129737 137.72227478 97.37025452 C138.22114197 96.86365295 138.72000916 96.35705139 139.23399353 95.83509827 C142.96886339 92.12025452 142.96886339 92.12025452 145.22227478 92.12025452 C145.57805603 91.27720764 145.57805603 91.27720764 145.94102478 90.41712952 C147.51175175 87.6013141 149.43698943 85.64070036 151.72227478 83.37025452 C152.51633728 82.57103577 153.31039978 81.77181702 154.12852478 80.94837952 C156.22227478 79.12025452 156.22227478 79.12025452 158.22227478 79.12025452 C158.42852478 78.58400452 158.63477478 78.04775452 158.84727478 77.49525452 C160.23675369 75.0952455 161.3545308 74.19718575 163.47227478 72.49525452 C165.14996282 71.00065016 165.14996282 71.00065016 166.22227478 69.12025452 C166.11659773 66.58859988 165.4945855 64.40867251 164.83555603 61.96400452 C163.50133138 55.77728129 163.77337349 49.1438599 166.52696228 43.39759827 C168.75261033 39.99268893 171.157963 36.81617909 174.22227478 34.12025452 C174.88227478 34.12025452 175.54227478 34.12025452 176.22227478 34.12025452 C176.22227478 33.46025452 176.22227478 32.80025452 176.22227478 32.12025452 C182.79279295 28.32957096 191.29348089 28.17302703 198.62071228 29.58119202 C205.58386929 31.6012205 210.77909515 35.37919866 214.53477478 41.62025452 C218.53915034 49.92562605 219.43809612 56.15657895 216.40977478 64.87025452 C215.09903705 68.38564308 213.73136265 71.30164662 211.22227478 74.12025452 C210.56227478 74.12025452 209.90227478 74.12025452 209.22227478 74.12025452 C208.89227478 75.11025452 208.56227478 76.10025452 208.22227478 77.12025452 C201.0765443 81.79246291 194.72049899 82.87230976 186.22227478 82.12025452 C183.12589802 81.33474301 180.18079418 80.32081312 177.22227478 79.12025452 C177.22227478 79.78025452 177.22227478 80.44025452 177.22227478 81.12025452 C175.34727478 83.24525452 175.34727478 83.24525452 173.22227478 85.12025452 C172.56227478 85.12025452 171.90227478 85.12025452 171.22227478 85.12025452 C171.22227478 85.78025452 171.22227478 86.44025452 171.22227478 87.12025452 C168.84727478 89.74525452 168.84727478 89.74525452 166.22227478 92.12025452 C165.56227478 92.12025452 164.90227478 92.12025452 164.22227478 92.12025452 C164.22227478 92.78025452 164.22227478 93.44025452 164.22227478 94.12025452 C162.34727478 96.24525452 162.34727478 96.24525452 160.22227478 98.12025452 C159.56227478 98.12025452 158.90227478 98.12025452 158.22227478 98.12025452 C158.22227478 98.78025452 158.22227478 99.44025452 158.22227478 100.12025452 C157.56227478 100.12025452 156.90227478 100.12025452 156.22227478 100.12025452 C156.22227478 100.78025452 156.22227478 101.44025452 156.22227478 102.12025452 C154.84727478 103.74525452 154.84727478 103.74525452 153.22227478 105.12025452 C152.56227478 105.12025452 151.90227478 105.12025452 151.22227478 105.12025452 C151.22227478 105.78025452 151.22227478 106.44025452 151.22227478 107.12025452 C150.56227478 107.12025452 149.90227478 107.12025452 149.22227478 107.12025452 C149.22227478 107.78025452 149.22227478 108.44025452 149.22227478 109.12025452 C148.56227478 109.12025452 147.90227478 109.12025452 147.22227478 109.12025452 C147.22227478 109.78025452 147.22227478 110.44025452 147.22227478 111.12025452 C146.56227478 111.12025452 145.90227478 111.12025452 145.22227478 111.12025452 C145.22227478 111.78025452 145.22227478 112.44025452 145.22227478 113.12025452 C144.56227478 113.12025452 143.90227478 113.12025452 143.22227478 113.12025452 C143.22227478 113.78025452 143.22227478 114.44025452 143.22227478 115.12025452 C140.84727478 117.74525452 140.84727478 117.74525452 138.22227478 120.12025452 C137.56227478 120.12025452 136.90227478 120.12025452 136.22227478 120.12025452 C136.22227478 120.78025452 136.22227478 121.44025452 136.22227478 122.12025452 C134.34727478 124.24525452 134.34727478 124.24525452 132.22227478 126.12025452 C131.56227478 126.12025452 130.90227478 126.12025452 130.22227478 126.12025452 C130.22227478 126.78025452 130.22227478 127.44025452 130.22227478 128.12025452 C129.56227478 128.12025452 128.90227478 128.12025452 128.22227478 128.12025452 C128.22227478 128.78025452 128.22227478 129.44025452 128.22227478 130.12025452 C126.84727478 131.74525452 126.84727478 131.74525452 125.22227478 133.12025452 C124.56227478 133.12025452 123.90227478 133.12025452 123.22227478 133.12025452 C123.22227478 133.78025452 123.22227478 134.44025452 123.22227478 135.12025452 C122.56227478 135.12025452 121.90227478 135.12025452 121.22227478 135.12025452 C121.22227478 135.78025452 121.22227478 136.44025452 121.22227478 137.12025452 C120.56227478 137.12025452 119.90227478 137.12025452 119.22227478 137.12025452 C119.22227478 137.78025452 119.22227478 138.44025452 119.22227478 139.12025452 C118.56227478 139.12025452 117.90227478 139.12025452 117.22227478 139.12025452 C117.22227478 139.78025452 117.22227478 140.44025452 117.22227478 141.12025452 C116.56227478 141.12025452 115.90227478 141.12025452 115.22227478 141.12025452 C115.22227478 141.78025452 115.22227478 142.44025452 115.22227478 143.12025452 C112.84727478 145.74525452 112.84727478 145.74525452 110.22227478 148.12025452 C109.56227478 148.12025452 108.90227478 148.12025452 108.22227478 148.12025452 C108.22227478 148.78025452 108.22227478 149.44025452 108.22227478 150.12025452 C106.34727478 152.24525452 106.34727478 152.24525452 104.22227478 154.12025452 C103.56227478 154.12025452 102.90227478 154.12025452 102.22227478 154.12025452 C102.22227478 154.78025452 102.22227478 155.44025452 102.22227478 156.12025452 C99.84727478 158.74525452 99.84727478 158.74525452 97.22227478 161.12025452 C96.56227478 161.12025452 95.90227478 161.12025452 95.22227478 161.12025452 C95.22227478 161.78025452 95.22227478 162.44025452 95.22227478 163.12025452 C94.56227478 163.12025452 93.90227478 163.12025452 93.22227478 163.12025452 C93.22227478 163.78025452 93.22227478 164.44025452 93.22227478 165.12025452 C92.56227478 165.12025452 91.90227478 165.12025452 91.22227478 165.12025452 C91.22227478 165.78025452 91.22227478 166.44025452 91.22227478 167.12025452 C90.56227478 167.12025452 89.90227478 167.12025452 89.22227478 167.12025452 C89.22227478 167.78025452 89.22227478 168.44025452 89.22227478 169.12025452 C88.56227478 169.12025452 87.90227478 169.12025452 87.22227478 169.12025452 C87.22227478 169.78025452 87.22227478 170.44025452 87.22227478 171.12025452 C84.84727478 173.74525452 84.84727478 173.74525452 82.22227478 176.12025452 C81.56227478 176.12025452 80.90227478 176.12025452 80.22227478 176.12025452 C80.22227478 176.78025452 80.22227478 177.44025452 80.22227478 178.12025452 C78.92993871 179.49336159 77.59790332 180.83060276 76.22227478 182.12025452 C79.41562976 184.24915783 81.85184528 184.95894825 85.55039978 185.92494202 C86.82657166 186.26138733 88.10274353 186.59783264 89.41758728 186.94447327 C90.76910584 187.29490319 92.12066849 187.64516313 93.47227478 187.99525452 C94.77709942 188.3371795 96.08178834 188.67962287 97.38633728 189.02259827 C100.0025756 189.70967569 102.61927419 190.39495113 105.23643494 191.07850647 C106.56505677 191.42572309 107.89366992 191.77297294 109.22227478 192.12025452 C109.91166138 192.30035065 110.60104797 192.48044678 111.31132507 192.66600037 C113.35779398 193.20176749 115.40340559 193.74069905 117.44883728 194.28041077 C118.65104919 194.59631165 119.85326111 194.91221252 121.09190369 195.23768616 C123.58683974 195.94110168 125.94955307 196.70918071 128.34727478 197.68275452 C131.50873921 198.94734029 134.64495154 199.70832465 137.97227478 200.43275452 C143.54410956 201.66455762 148.95979023 203.19641968 154.40977478 204.87025452 C162.45472052 207.33157558 170.53653708 209.61850486 178.65977478 211.80775452 C179.71253601 212.09295959 180.76529724 212.37816467 181.84996033 212.67201233 C183.86166028 213.2106496 185.87818661 213.7317167 187.89997864 214.23114014 C191.22227478 215.12025452 191.22227478 215.12025452 194.31283569 216.24551392 C200.696015 218.37567808 200.696015 218.37567808 206.96963501 216.75860596 C209.74097308 214.42318997 212.14259709 211.94862577 214.57383728 209.26087952 C215.95896728 207.83391947 217.34409917 206.40696127 218.72934532 204.98011398 C220.64854491 202.98199843 222.52800938 200.94834956 224.40965271 198.91493225 C227.26590737 195.84598035 230.17790814 192.83006163 233.0831356 189.8075676 C235.34128982 187.4565996 237.58661566 185.0958914 239.81227112 182.71406555 C240.61095612 181.86358643 241.40964111 181.0131073 242.23252869 180.13685608 C242.93278168 179.38390259 243.63303467 178.6309491 244.35450745 177.85517883 C246.22227478 176.12025452 246.22227478 176.12025452 249.22227478 175.12025452 C249.22227478 200.53025452 249.22227478 225.94025452 249.22227478 252.12025452 C217.13598518 252.14228086 185.04970288 252.16075235 152.963408 252.17131985 C149.17933558 252.17257062 145.39526319 252.17386494 141.6111908 252.17518616 C140.48113188 252.17557962 140.48113188 252.17557962 139.32824349 252.17598104 C127.11364809 252.18033788 114.89905737 252.1882255 102.68446476 252.19740731 C90.16053279 252.20674347 77.63660328 252.21231004 65.11266798 252.21434301 C57.37848626 252.21571832 49.64431779 252.22006932 41.91014015 252.22817098 C35.98960756 252.23405865 30.06908184 252.23471358 24.14854622 252.2333622 C21.71239134 252.23363873 19.27623599 252.23564645 16.84008408 252.23945999 C13.52984506 252.24439035 10.21966401 252.24325525 6.90942383 252.24050903 C5.44301463 252.2448783 5.44301463 252.2448783 3.94698101 252.24933583 C2.62727091 252.24634925 2.62727091 252.24634925 1.2809 252.24330235 C0.51576354 252.24368207 -0.24937293 252.24406179 -1.03769535 252.24445301 C-2.77772522 252.12025452 -2.77772522 252.12025452 -3.77772522 251.12025452 C-3.87494126 249.78159185 -3.90327908 248.43784535 -3.90356636 247.09565735 C-3.90617411 246.2234341 -3.90878186 245.35121086 -3.91146863 244.45255661 C-3.90812254 242.99884344 -3.90812254 242.99884344 -3.90470886 241.51576233 C-3.90626885 240.49472538 -3.90782884 239.47368843 -3.90943611 238.42171097 C-3.91345091 234.97225282 -3.91025461 231.52283805 -3.90711975 228.07337952 C-3.90847358 225.6118314 -3.91025341 223.15028349 -3.91242981 220.68873596 C-3.91653023 214.68001722 -3.91591082 208.67131574 -3.91301717 202.66259766 C-3.91076333 197.78133542 -3.91045053 192.90007669 -3.91154099 188.01881409 C-3.91177083 186.97868994 -3.91177083 186.97868994 -3.91200533 185.91755319 C-3.91232504 184.50911045 -3.91264925 183.10066771 -3.91297792 181.69222498 C-3.91583285 168.46985215 -3.91254548 155.24748623 -3.90717755 142.02511454 C-3.9027095 130.66750148 -3.90348543 119.30989864 -3.90809631 107.95228577 C-3.91344184 94.77882595 -3.91555816 81.60537221 -3.91248405 68.43191147 C-3.91216548 67.02850596 -3.91185111 65.62510045 -3.91154099 64.22169495 C-3.91138671 63.53110308 -3.91123243 62.84051121 -3.91107348 62.12899232 C-3.91020826 57.25079341 -3.91167131 52.37259834 -3.91402054 47.49440002 C-3.91710993 40.9347375 -3.91492608 34.37509137 -3.90912628 27.81542969 C-3.90779795 25.40023837 -3.90819403 22.98504543 -3.91038895 20.56985474 C-3.91309759 17.28812961 -3.90972284 14.00646773 -3.90470886 10.7247467 C-3.90693958 9.75560459 -3.90917031 8.78646248 -3.91146863 7.78795242 C-3.90886088 6.91572918 -3.90625313 6.04350594 -3.90356636 5.14485168 C-3.90340401 4.38633282 -3.90324166 3.62781395 -3.90307438 2.84630966 C-3.6881346 -0.11340632 -2.98212201 0.12910335 0 0 Z " fill="#0176CC" transform="translate(91.77772521972656,170.87974548339844)"/>
<path d="M0 0 C5.72926472 5.35792349 8.7717225 12.16152122 9.5625 19.9375 C9.39276267 26.71393635 6.70615943 34.17392064 2.1875 39.25 C1.5275 39.25 0.8675 39.25 0.1875 39.25 C-0.1425 40.24 -0.4725 41.23 -0.8125 42.25 C-7.95823048 46.92220839 -14.31427579 48.00205524 -22.8125 47.25 C-25.90887676 46.46448849 -28.8539806 45.4505586 -31.8125 44.25 C-31.8125 44.91 -31.8125 45.57 -31.8125 46.25 C-33.6875 48.375 -33.6875 48.375 -35.8125 50.25 C-36.4725 50.25 -37.1325 50.25 -37.8125 50.25 C-37.8125 50.91 -37.8125 51.57 -37.8125 52.25 C-40.1875 54.875 -40.1875 54.875 -42.8125 57.25 C-43.4725 57.25 -44.1325 57.25 -44.8125 57.25 C-44.8125 57.91 -44.8125 58.57 -44.8125 59.25 C-46.6875 61.375 -46.6875 61.375 -48.8125 63.25 C-49.4725 63.25 -50.1325 63.25 -50.8125 63.25 C-50.8125 63.91 -50.8125 64.57 -50.8125 65.25 C-51.4725 65.25 -52.1325 65.25 -52.8125 65.25 C-52.8125 65.91 -52.8125 66.57 -52.8125 67.25 C-54.1875 68.875 -54.1875 68.875 -55.8125 70.25 C-56.4725 70.25 -57.1325 70.25 -57.8125 70.25 C-57.8125 70.91 -57.8125 71.57 -57.8125 72.25 C-58.4725 72.25 -59.1325 72.25 -59.8125 72.25 C-59.8125 72.91 -59.8125 73.57 -59.8125 74.25 C-60.4725 74.25 -61.1325 74.25 -61.8125 74.25 C-61.8125 74.91 -61.8125 75.57 -61.8125 76.25 C-62.4725 76.25 -63.1325 76.25 -63.8125 76.25 C-63.8125 76.91 -63.8125 77.57 -63.8125 78.25 C-64.4725 78.25 -65.1325 78.25 -65.8125 78.25 C-65.8125 78.91 -65.8125 79.57 -65.8125 80.25 C-68.1875 82.875 -68.1875 82.875 -70.8125 85.25 C-71.4725 85.25 -72.1325 85.25 -72.8125 85.25 C-72.8125 85.91 -72.8125 86.57 -72.8125 87.25 C-74.6875 89.375 -74.6875 89.375 -76.8125 91.25 C-77.4725 91.25 -78.1325 91.25 -78.8125 91.25 C-78.8125 91.91 -78.8125 92.57 -78.8125 93.25 C-79.4725 93.25 -80.1325 93.25 -80.8125 93.25 C-80.8125 93.91 -80.8125 94.57 -80.8125 95.25 C-82.1875 96.875 -82.1875 96.875 -83.8125 98.25 C-84.4725 98.25 -85.1325 98.25 -85.8125 98.25 C-85.8125 98.91 -85.8125 99.57 -85.8125 100.25 C-86.4725 100.25 -87.1325 100.25 -87.8125 100.25 C-87.8125 100.91 -87.8125 101.57 -87.8125 102.25 C-88.4725 102.25 -89.1325 102.25 -89.8125 102.25 C-89.8125 102.91 -89.8125 103.57 -89.8125 104.25 C-90.4725 104.25 -91.1325 104.25 -91.8125 104.25 C-91.8125 104.91 -91.8125 105.57 -91.8125 106.25 C-92.4725 106.25 -93.1325 106.25 -93.8125 106.25 C-93.8125 106.91 -93.8125 107.57 -93.8125 108.25 C-96.1875 110.875 -96.1875 110.875 -98.8125 113.25 C-99.4725 113.25 -100.1325 113.25 -100.8125 113.25 C-100.8125 113.91 -100.8125 114.57 -100.8125 115.25 C-102.6875 117.375 -102.6875 117.375 -104.8125 119.25 C-105.4725 119.25 -106.1325 119.25 -106.8125 119.25 C-106.8125 119.91 -106.8125 120.57 -106.8125 121.25 C-109.1875 123.875 -109.1875 123.875 -111.8125 126.25 C-112.4725 126.25 -113.1325 126.25 -113.8125 126.25 C-113.8125 126.91 -113.8125 127.57 -113.8125 128.25 C-114.4725 128.25 -115.1325 128.25 -115.8125 128.25 C-115.8125 128.91 -115.8125 129.57 -115.8125 130.25 C-116.4725 130.25 -117.1325 130.25 -117.8125 130.25 C-117.8125 130.91 -117.8125 131.57 -117.8125 132.25 C-118.4725 132.25 -119.1325 132.25 -119.8125 132.25 C-119.8125 132.91 -119.8125 133.57 -119.8125 134.25 C-120.4725 134.25 -121.1325 134.25 -121.8125 134.25 C-121.8125 134.91 -121.8125 135.57 -121.8125 136.25 C-124.1875 138.875 -124.1875 138.875 -126.8125 141.25 C-127.4725 141.25 -128.1325 141.25 -128.8125 141.25 C-128.8125 141.91 -128.8125 142.57 -128.8125 143.25 C-130.10483607 144.62310707 -131.43687146 145.96034824 -132.8125 147.25 C-132.4825 147.91 -132.1525 148.57 -131.8125 149.25 C-135.7725 150.24 -135.7725 150.24 -139.8125 151.25 C-139.4825 150.26 -139.1525 149.27 -138.8125 148.25 C-138.1525 148.25 -137.4925 148.25 -136.8125 148.25 C-136.8125 147.59 -136.8125 146.93 -136.8125 146.25 C-136.1525 146.25 -135.4925 146.25 -134.8125 146.25 C-135.06 145.693125 -135.3075 145.13625 -135.5625 144.5625 C-135.68625 143.4178125 -135.68625 143.4178125 -135.8125 142.25 C-135.19375 141.5075 -134.575 140.765 -133.9375 140 C-131.09636323 136.32323477 -131.12318193 133.83255848 -130.8125 129.25 C-131.3075 130.24 -131.3075 130.24 -131.8125 131.25 C-133.4625 131.25 -135.1125 131.25 -136.8125 131.25 C-137.01875 131.86875 -137.225 132.4875 -137.4375 133.125 C-139.36025888 136.09653645 -141.47844527 136.38024659 -144.8125 137.25 C-143.9044838 136.11800647 -142.98566174 134.99467637 -142.0625 133.875 C-141.55203125 133.24851562 -141.0415625 132.62203125 -140.515625 131.9765625 C-138.73050519 130.16687682 -137.13300356 129.24882545 -134.8125 128.25 C-134.8125 127.59 -134.8125 126.93 -134.8125 126.25 C-134.1525 126.25 -133.4925 126.25 -132.8125 126.25 C-132.5753125 125.68796875 -132.338125 125.1259375 -132.09375 124.546875 C-130.52302303 121.73105958 -128.59778536 119.77044584 -126.3125 117.5 C-125.5184375 116.70078125 -124.724375 115.9015625 -123.90625 115.078125 C-121.8125 113.25 -121.8125 113.25 -119.8125 113.25 C-119.5753125 112.68796875 -119.338125 112.1259375 -119.09375 111.546875 C-117.52302303 108.73105958 -115.59778536 106.77044584 -113.3125 104.5 C-112.5184375 103.70078125 -111.724375 102.9015625 -110.90625 102.078125 C-108.8125 100.25 -108.8125 100.25 -106.8125 100.25 C-106.5959375 99.70859375 -106.379375 99.1671875 -106.15625 98.609375 C-104.34750003 95.43354656 -101.89526201 93.04271919 -99.3125 90.5 C-98.81363281 89.99339844 -98.31476563 89.48679687 -97.80078125 88.96484375 C-94.06591139 85.25 -94.06591139 85.25 -91.8125 85.25 C-91.5753125 84.68796875 -91.338125 84.1259375 -91.09375 83.546875 C-89.52302303 80.73105958 -87.59778536 78.77044584 -85.3125 76.5 C-84.5184375 75.70078125 -83.724375 74.9015625 -82.90625 74.078125 C-80.8125 72.25 -80.8125 72.25 -78.8125 72.25 C-78.5959375 71.70859375 -78.379375 71.1671875 -78.15625 70.609375 C-76.34750003 67.43354656 -73.89526201 65.04271919 -71.3125 62.5 C-70.81363281 61.99339844 -70.31476563 61.48679687 -69.80078125 60.96484375 C-66.06591139 57.25 -66.06591139 57.25 -63.8125 57.25 C-63.5753125 56.68796875 -63.338125 56.1259375 -63.09375 55.546875 C-61.52302303 52.73105958 -59.59778536 50.77044584 -57.3125 48.5 C-56.5184375 47.70078125 -55.724375 46.9015625 -54.90625 46.078125 C-52.8125 44.25 -52.8125 44.25 -50.8125 44.25 C-50.60625 43.71375 -50.4 43.1775 -50.1875 42.625 C-48.79802109 40.22499098 -47.68024398 39.32693123 -45.5625 37.625 C-43.88481196 36.13039565 -43.88481196 36.13039565 -42.8125 34.25 C-42.91817705 31.71834536 -43.54018928 29.53841799 -44.19921875 27.09375 C-45.5334434 20.90702677 -45.26140129 14.27360539 -42.5078125 8.52734375 C-40.28216445 5.12243441 -37.87681178 1.94592457 -34.8125 -0.75 C-34.1525 -0.75 -33.4925 -0.75 -32.8125 -0.75 C-32.8125 -1.41 -32.8125 -2.07 -32.8125 -2.75 C-22.93620164 -8.44786444 -8.80245792 -7.00450907 0 0 Z " fill="#0677CB" transform="translate(300.8125,205.75)"/>
<path d="M0 0 C0 2.83967231 -0.40267181 5.23735711 -1 8 C-0.34 7.67 0.32 7.34 1 7 C1 6.01 1 5.02 1 4 C4 4 4 4 6.375 6 C9.28553971 8.21755407 10.4486685 8.40586646 14 8 C13.34 8.33 12.68 8.66 12 9 C12 9.66 12 10.32 12 11 C10.125 13.125 10.125 13.125 8 15 C7.34 15 6.68 15 6 15 C6 15.66 6 16.32 6 17 C3.625 19.625 3.625 19.625 1 22 C0.34 22 -0.32 22 -1 22 C-1 22.66 -1 23.32 -1 24 C-2.875 26.125 -2.875 26.125 -5 28 C-5.66 28 -6.32 28 -7 28 C-7 28.66 -7 29.32 -7 30 C-7.66 30 -8.32 30 -9 30 C-9 30.66 -9 31.32 -9 32 C-10.375 33.625 -10.375 33.625 -12 35 C-12.66 35 -13.32 35 -14 35 C-14 35.66 -14 36.32 -14 37 C-14.66 37 -15.32 37 -16 37 C-16 37.66 -16 38.32 -16 39 C-16.66 39 -17.32 39 -18 39 C-18 39.66 -18 40.32 -18 41 C-18.66 41 -19.32 41 -20 41 C-20 41.66 -20 42.32 -20 43 C-20.66 43 -21.32 43 -22 43 C-22 43.66 -22 44.32 -22 45 C-24.375 47.625 -24.375 47.625 -27 50 C-27.66 50 -28.32 50 -29 50 C-29 50.66 -29 51.32 -29 52 C-30.875 54.125 -30.875 54.125 -33 56 C-33.66 56 -34.32 56 -35 56 C-35 56.66 -35 57.32 -35 58 C-35.66 58 -36.32 58 -37 58 C-37 58.66 -37 59.32 -37 60 C-38.375 61.625 -38.375 61.625 -40 63 C-40.66 63 -41.32 63 -42 63 C-42 63.66 -42 64.32 -42 65 C-42.66 65 -43.32 65 -44 65 C-44 65.66 -44 66.32 -44 67 C-44.66 67 -45.32 67 -46 67 C-46 67.66 -46 68.32 -46 69 C-46.66 69 -47.32 69 -48 69 C-48 69.66 -48 70.32 -48 71 C-48.66 71 -49.32 71 -50 71 C-50 71.66 -50 72.32 -50 73 C-52.375 75.625 -52.375 75.625 -55 78 C-55.66 78 -56.32 78 -57 78 C-57 78.66 -57 79.32 -57 80 C-58.875 82.125 -58.875 82.125 -61 84 C-61.66 84 -62.32 84 -63 84 C-63 84.66 -63 85.32 -63 86 C-65.375 88.625 -65.375 88.625 -68 91 C-68.66 91 -69.32 91 -70 91 C-70 91.66 -70 92.32 -70 93 C-70.66 93 -71.32 93 -72 93 C-72 93.66 -72 94.32 -72 95 C-72.66 95 -73.32 95 -74 95 C-74 95.66 -74 96.32 -74 97 C-74.66 97 -75.32 97 -76 97 C-76 97.66 -76 98.32 -76 99 C-76.66 99 -77.32 99 -78 99 C-78 99.66 -78 100.32 -78 101 C-80.375 103.625 -80.375 103.625 -83 106 C-83.66 106 -84.32 106 -85 106 C-85 106.66 -85 107.32 -85 108 C-86.29233607 109.37310707 -87.62437146 110.71034824 -89 112 C-88.67 112.66 -88.34 113.32 -88 114 C-91.96 114.99 -91.96 114.99 -96 116 C-95.67 115.01 -95.34 114.02 -95 113 C-94.34 113 -93.68 113 -93 113 C-93 112.34 -93 111.68 -93 111 C-92.34 111 -91.68 111 -91 111 C-91.2475 110.443125 -91.495 109.88625 -91.75 109.3125 C-91.87375 108.1678125 -91.87375 108.1678125 -92 107 C-91.38125 106.2575 -90.7625 105.515 -90.125 104.75 C-87.28386323 101.07323477 -87.31068193 98.58255848 -87 94 C-87.495 94.99 -87.495 94.99 -88 96 C-89.65 96 -91.3 96 -93 96 C-93.20625 96.61875 -93.4125 97.2375 -93.625 97.875 C-95.54775888 100.84653645 -97.66594527 101.13024659 -101 102 C-100.0919838 100.86800647 -99.17316174 99.74467637 -98.25 98.625 C-97.73953125 97.99851562 -97.2290625 97.37203125 -96.703125 96.7265625 C-94.91800519 94.91687682 -93.32050356 93.99882545 -91 93 C-91 92.34 -91 91.68 -91 91 C-90.34 91 -89.68 91 -89 91 C-88.7628125 90.43796875 -88.525625 89.8759375 -88.28125 89.296875 C-86.71052303 86.48105958 -84.78528536 84.52044584 -82.5 82.25 C-81.7059375 81.45078125 -80.911875 80.6515625 -80.09375 79.828125 C-78 78 -78 78 -76 78 C-75.7628125 77.43796875 -75.525625 76.8759375 -75.28125 76.296875 C-73.71052303 73.48105958 -71.78528536 71.52044584 -69.5 69.25 C-68.7059375 68.45078125 -67.911875 67.6515625 -67.09375 66.828125 C-65 65 -65 65 -63 65 C-62.7834375 64.45859375 -62.566875 63.9171875 -62.34375 63.359375 C-60.53500003 60.18354656 -58.08276201 57.79271919 -55.5 55.25 C-55.00113281 54.74339844 -54.50226563 54.23679687 -53.98828125 53.71484375 C-50.25341139 50 -50.25341139 50 -48 50 C-47.7628125 49.43796875 -47.525625 48.8759375 -47.28125 48.296875 C-45.71052303 45.48105958 -43.78528536 43.52044584 -41.5 41.25 C-40.7059375 40.45078125 -39.911875 39.6515625 -39.09375 38.828125 C-37 37 -37 37 -35 37 C-34.7834375 36.45859375 -34.566875 35.9171875 -34.34375 35.359375 C-32.53500003 32.18354656 -30.08276201 29.79271919 -27.5 27.25 C-26.75169922 26.49009766 -26.75169922 26.49009766 -25.98828125 25.71484375 C-22.25341139 22 -22.25341139 22 -20 22 C-19.7628125 21.43796875 -19.525625 20.8759375 -19.28125 20.296875 C-17.71052303 17.48105958 -15.78528536 15.52044584 -13.5 13.25 C-12.7059375 12.45078125 -11.911875 11.6515625 -11.09375 10.828125 C-9 9 -9 9 -7 9 C-6.773125 8.443125 -6.54625 7.88625 -6.3125 7.3125 C-4.64103234 4.36753316 -2.44723648 2.31843456 0 0 Z " fill="#0877CC" transform="translate(257,241)"/>
<path d="M0 0 C1.24132187 0.00222061 2.48264374 0.00444122 3.76158142 0.00672913 C4.44447739 0.0065831 5.12737335 0.00643707 5.83096313 0.00628662 C8.09815092 0.00698575 10.36525752 0.01477811 12.63243103 0.02259827 C14.20041865 0.02446245 15.76840685 0.02588635 17.33639526 0.02688599 C21.47103981 0.03071117 25.60564944 0.04054146 29.74028015 0.05158997 C33.95627876 0.06180407 38.172283 0.0663836 42.38829041 0.07142639 C50.66630125 0.08216373 58.94428368 0.09924015 67.22227478 0.12025452 C66.89227478 1.44025452 66.56227478 2.76025452 66.22227478 4.12025452 C65.56227478 4.12025452 64.90227478 4.12025452 64.22227478 4.12025452 C64.22227478 3.46025452 64.22227478 2.80025452 64.22227478 2.12025452 C42.77227478 2.45025452 21.32227478 2.78025452 -0.77772522 3.12025452 C-1.10772522 84.63025452 -1.43772522 166.14025452 -1.77772522 250.12025452 C80.39227478 249.79025452 162.56227478 249.46025452 247.22227478 249.12025452 C246.89227478 226.68025452 246.56227478 204.24025452 246.22227478 181.12025452 C245.23227478 182.77025452 244.24227478 184.42025452 243.22227478 186.12025452 C239.22227478 186.12025452 239.22227478 186.12025452 237.22227478 185.12025452 C238.6535026 183.6350181 240.09248367 182.1572499 241.53477478 180.68275452 C242.33528259 179.85904358 243.13579041 179.03533264 243.96055603 178.18666077 C246.22227478 176.12025452 246.22227478 176.12025452 249.22227478 175.12025452 C249.22227478 200.53025452 249.22227478 225.94025452 249.22227478 252.12025452 C217.13598518 252.14228086 185.04970288 252.16075235 152.963408 252.17131985 C149.17933558 252.17257062 145.39526319 252.17386494 141.6111908 252.17518616 C140.48113188 252.17557962 140.48113188 252.17557962 139.32824349 252.17598104 C127.11364809 252.18033788 114.89905737 252.1882255 102.68446476 252.19740731 C90.16053279 252.20674347 77.63660328 252.21231004 65.11266798 252.21434301 C57.37848626 252.21571832 49.64431779 252.22006932 41.91014015 252.22817098 C35.98960756 252.23405865 30.06908184 252.23471358 24.14854622 252.2333622 C21.71239134 252.23363873 19.27623599 252.23564645 16.84008408 252.23945999 C13.52984506 252.24439035 10.21966401 252.24325525 6.90942383 252.24050903 C5.44301463 252.2448783 5.44301463 252.2448783 3.94698101 252.24933583 C2.62727091 252.24634925 2.62727091 252.24634925 1.2809 252.24330235 C0.51576354 252.24368207 -0.24937293 252.24406179 -1.03769535 252.24445301 C-2.77772522 252.12025452 -2.77772522 252.12025452 -3.77772522 251.12025452 C-3.87494126 249.78159185 -3.90327908 248.43784535 -3.90356636 247.09565735 C-3.90617411 246.2234341 -3.90878186 245.35121086 -3.91146863 244.45255661 C-3.90812254 242.99884344 -3.90812254 242.99884344 -3.90470886 241.51576233 C-3.90626885 240.49472538 -3.90782884 239.47368843 -3.90943611 238.42171097 C-3.91345091 234.97225282 -3.91025461 231.52283805 -3.90711975 228.07337952 C-3.90847358 225.6118314 -3.91025341 223.15028349 -3.91242981 220.68873596 C-3.91653023 214.68001722 -3.91591082 208.67131574 -3.91301717 202.66259766 C-3.91076333 197.78133542 -3.91045053 192.90007669 -3.91154099 188.01881409 C-3.91177083 186.97868994 -3.91177083 186.97868994 -3.91200533 185.91755319 C-3.91232504 184.50911045 -3.91264925 183.10066771 -3.91297792 181.69222498 C-3.91583285 168.46985215 -3.91254548 155.24748623 -3.90717755 142.02511454 C-3.9027095 130.66750148 -3.90348543 119.30989864 -3.90809631 107.95228577 C-3.91344184 94.77882595 -3.91555816 81.60537221 -3.91248405 68.43191147 C-3.91216548 67.02850596 -3.91185111 65.62510045 -3.91154099 64.22169495 C-3.91138671 63.53110308 -3.91123243 62.84051121 -3.91107348 62.12899232 C-3.91020826 57.25079341 -3.91167131 52.37259834 -3.91402054 47.49440002 C-3.91710993 40.9347375 -3.91492608 34.37509137 -3.90912628 27.81542969 C-3.90779795 25.40023837 -3.90819403 22.98504543 -3.91038895 20.56985474 C-3.91309759 17.28812961 -3.90972284 14.00646773 -3.90470886 10.7247467 C-3.90693958 9.75560459 -3.90917031 8.78646248 -3.91146863 7.78795242 C-3.90886088 6.91572918 -3.90625313 6.04350594 -3.90356636 5.14485168 C-3.90340401 4.38633282 -3.90324166 3.62781395 -3.90307438 2.84630966 C-3.6881346 -0.11340632 -2.98212201 0.12910335 0 0 Z " fill="#3687BD" transform="translate(91.77772521972656,170.87974548339844)"/>
<path d="M0 0 C0.99 0.495 0.99 0.495 2 1 C2.495 2.485 2.495 2.485 3 4 C2.34 4 1.68 4 1 4 C1 4.66 1 5.32 1 6 C0.34 6 -0.32 6 -1 6 C-1 6.66 -1 7.32 -1 8 C-2.375 9.625 -2.375 9.625 -4 11 C-4.66 11 -5.32 11 -6 11 C-6 11.66 -6 12.32 -6 13 C-6.66 13 -7.32 13 -8 13 C-8 13.66 -8 14.32 -8 15 C-8.66 15 -9.32 15 -10 15 C-10 15.66 -10 16.32 -10 17 C-10.66 17 -11.32 17 -12 17 C-12 17.66 -12 18.32 -12 19 C-12.66 19 -13.32 19 -14 19 C-14 19.66 -14 20.32 -14 21 C-16.375 23.625 -16.375 23.625 -19 26 C-19.66 26 -20.32 26 -21 26 C-21 26.66 -21 27.32 -21 28 C-22.875 30.125 -22.875 30.125 -25 32 C-25.66 32 -26.32 32 -27 32 C-27 32.66 -27 33.32 -27 34 C-29.375 36.625 -29.375 36.625 -32 39 C-32.66 39 -33.32 39 -34 39 C-34 39.66 -34 40.32 -34 41 C-34.66 41 -35.32 41 -36 41 C-36 41.66 -36 42.32 -36 43 C-36.66 43 -37.32 43 -38 43 C-38 43.66 -38 44.32 -38 45 C-38.66 45 -39.32 45 -40 45 C-40 45.66 -40 46.32 -40 47 C-40.66 47 -41.32 47 -42 47 C-42 47.66 -42 48.32 -42 49 C-44.375 51.625 -44.375 51.625 -47 54 C-47.66 54 -48.32 54 -49 54 C-49 54.66 -49 55.32 -49 56 C-50.29233607 57.37310707 -51.62437146 58.71034824 -53 60 C-52.67 60.66 -52.34 61.32 -52 62 C-54.64 62.66 -57.28 63.32 -60 64 C-59.67 63.01 -59.34 62.02 -59 61 C-58.34 61 -57.68 61 -57 61 C-57 60.34 -57 59.68 -57 59 C-56.34 59 -55.68 59 -55 59 C-55.2475 58.443125 -55.495 57.88625 -55.75 57.3125 C-55.8325 56.549375 -55.915 55.78625 -56 55 C-55.071875 53.88625 -55.071875 53.88625 -54.125 52.75 C-51.28386323 49.07323477 -51.31068193 46.58255848 -51 42 C-51.33 42.66 -51.66 43.32 -52 44 C-53.65 44 -55.3 44 -57 44 C-57.309375 44.928125 -57.309375 44.928125 -57.625 45.875 C-59.54775888 48.84653645 -61.66594527 49.13024659 -65 50 C-64.0919838 48.86800647 -63.17316174 47.74467637 -62.25 46.625 C-61.73953125 45.99851562 -61.2290625 45.37203125 -60.703125 44.7265625 C-58.91800519 42.91687682 -57.32050356 41.99882545 -55 41 C-55 40.34 -55 39.68 -55 39 C-54.34 39 -53.68 39 -53 39 C-52.7628125 38.43796875 -52.525625 37.8759375 -52.28125 37.296875 C-50.71052303 34.48105958 -48.78528536 32.52044584 -46.5 30.25 C-45.7059375 29.45078125 -44.911875 28.6515625 -44.09375 27.828125 C-42 26 -42 26 -40 26 C-39.7628125 25.43796875 -39.525625 24.8759375 -39.28125 24.296875 C-37.71052303 21.48105958 -35.78528536 19.52044584 -33.5 17.25 C-32.7059375 16.45078125 -31.911875 15.6515625 -31.09375 14.828125 C-29 13 -29 13 -27 13 C-26.7525 12.401875 -26.505 11.80375 -26.25 11.1875 C-24.83629988 8.71352479 -23.34944617 7.56629745 -21 6 C-21.33 7.65 -21.66 9.3 -22 11 C-22.99 11 -23.98 11 -25 11 C-25.33 12.98 -25.66 14.96 -26 17 C-25.34 17 -24.68 17 -24 17 C-24 17.66 -24 18.32 -24 19 C-23.01 19.33 -22.02 19.66 -21 20 C-21 20.99 -21 21.98 -21 23 C-20.34 23 -19.68 23 -19 23 C-19.495 21.515 -19.495 21.515 -20 20 C-19.34 20 -18.68 20 -18 20 C-17.34 18.68 -16.68 17.36 -16 16 C-15.01 16.33 -14.02 16.66 -13 17 C-13 16.34 -13 15.68 -13 15 C-13.66 15 -14.32 15 -15 15 C-15.495 13.515 -15.495 13.515 -16 12 C-15.67 11.34 -15.34 10.68 -15 10 C-14.34 10 -13.68 10 -13 10 C-13 11.32 -13 12.64 -13 14 C-12.01 14 -11.02 14 -10 14 C-10.495 11.03 -10.495 11.03 -11 8 C-10.34 8 -9.68 8 -9 8 C-9 8.99 -9 9.98 -9 11 C-8.34 11 -7.68 11 -7 11 C-7.495 9.515 -7.495 9.515 -8 8 C-6.8125 6.5 -6.8125 6.5 -5 5 C-2.3125 4.8125 -2.3125 4.8125 0 5 C0 3.35 0 1.7 0 0 Z " fill="#0D7ACD" transform="translate(221,293)"/>
<path d="M0 0 C0 2.83967231 -0.40267181 5.23735711 -1 8 C-0.34 7.67 0.32 7.34 1 7 C1 6.01 1 5.02 1 4 C4 4 4 4 6.375 6 C9.28553971 8.21755407 10.4486685 8.40586646 14 8 C13.34 8.33 12.68 8.66 12 9 C12 9.66 12 10.32 12 11 C10.125 13.125 10.125 13.125 8 15 C7.34 15 6.68 15 6 15 C6 15.66 6 16.32 6 17 C3.625 19.625 3.625 19.625 1 22 C0.34 22 -0.32 22 -1 22 C-1 22.66 -1 23.32 -1 24 C-2.875 26.125 -2.875 26.125 -5 28 C-5.66 28 -6.32 28 -7 28 C-7 28.66 -7 29.32 -7 30 C-7.66 30 -8.32 30 -9 30 C-9 30.66 -9 31.32 -9 32 C-10.375 33.625 -10.375 33.625 -12 35 C-12.66 35 -13.32 35 -14 35 C-14 35.66 -14 36.32 -14 37 C-14.66 37 -15.32 37 -16 37 C-16 37.66 -16 38.32 -16 39 C-16.66 39 -17.32 39 -18 39 C-18 39.66 -18 40.32 -18 41 C-18.66 41 -19.32 41 -20 41 C-20 41.66 -20 42.32 -20 43 C-20.66 43 -21.32 43 -22 43 C-22 43.66 -22 44.32 -22 45 C-24.375 47.625 -24.375 47.625 -27 50 C-27.66 50 -28.32 50 -29 50 C-29 50.66 -29 51.32 -29 52 C-30.32 52.66 -31.64 53.32 -33 54 C-33 51.69 -33 49.38 -33 47 C-32.34 47 -31.68 47 -31 47 C-30.34 45.68 -29.68 44.36 -29 43 C-27.02 43.33 -25.04 43.66 -23 44 C-22.67 41.69 -22.34 39.38 -22 37 C-20.35 37 -18.7 37 -17 37 C-17.33 36.01 -17.66 35.02 -18 34 C-17.01 34 -16.02 34 -15 34 C-15.66 32.35 -16.32 30.7 -17 29 C-16.34 28.67 -15.68 28.34 -15 28 C-14.27129528 25.68529088 -13.60760482 23.3494053 -13 21 C-12.67 20.01 -12.34 19.02 -12 18 C-12.66 18 -13.32 18 -14 18 C-14.33 18.99 -14.66 19.98 -15 21 C-15.66 21 -16.32 21 -17 21 C-17.33 21.99 -17.66 22.98 -18 24 C-18.65484375 24.27585937 -19.3096875 24.55171875 -19.984375 24.8359375 C-22.27637031 25.85790625 -22.27637031 25.85790625 -22.828125 28.6015625 C-22.96734375 29.59929687 -23.1065625 30.59703125 -23.25 31.625 C-23.39953125 32.62789063 -23.5490625 33.63078125 -23.703125 34.6640625 C-23.80109375 35.43492187 -23.8990625 36.20578125 -24 37 C-25.3303125 36.4740625 -25.3303125 36.4740625 -26.6875 35.9375 C-30.06203126 34.98244398 -31.69686152 35.02848868 -35 36 C-26.42585551 25.75285171 -26.42585551 25.75285171 -22 22 C-21.34 22 -20.68 22 -20 22 C-19.7628125 21.43796875 -19.525625 20.8759375 -19.28125 20.296875 C-17.71052303 17.48105958 -15.78528536 15.52044584 -13.5 13.25 C-12.7059375 12.45078125 -11.911875 11.6515625 -11.09375 10.828125 C-9 9 -9 9 -7 9 C-6.773125 8.443125 -6.54625 7.88625 -6.3125 7.3125 C-4.64103234 4.36753316 -2.44723648 2.31843456 0 0 Z " fill="#167ECB" transform="translate(257,241)"/>
<path d="M0 0 C1.24132187 0.00222061 2.48264374 0.00444122 3.76158142 0.00672913 C4.44447739 0.0065831 5.12737335 0.00643707 5.83096313 0.00628662 C8.09815092 0.00698575 10.36525752 0.01477811 12.63243103 0.02259827 C14.20041865 0.02446245 15.76840685 0.02588635 17.33639526 0.02688599 C21.47103981 0.03071117 25.60564944 0.04054146 29.74028015 0.05158997 C33.95627876 0.06180407 38.172283 0.0663836 42.38829041 0.07142639 C50.66630125 0.08216373 58.94428368 0.09924015 67.22227478 0.12025452 C66.89227478 1.44025452 66.56227478 2.76025452 66.22227478 4.12025452 C65.56227478 4.12025452 64.90227478 4.12025452 64.22227478 4.12025452 C64.22227478 3.46025452 64.22227478 2.80025452 64.22227478 2.12025452 C42.77227478 2.45025452 21.32227478 2.78025452 -0.77772522 3.12025452 C-1.91952898 5.40386204 -1.90735483 6.67051434 -1.91639042 9.20822334 C-1.92186486 10.06912075 -1.92733931 10.93001816 -1.93297964 11.81700337 C-1.93395775 12.76835097 -1.93493586 13.71969857 -1.9359436 14.69987488 C-1.94088158 15.70613761 -1.94581956 16.71240034 -1.95090717 17.74915588 C-1.96634349 21.1425477 -1.97465935 24.53592051 -1.98304749 27.92933655 C-1.99262119 30.35324777 -2.00263097 32.77715731 -2.01304626 35.20106506 C-2.03453117 40.43067337 -2.05296477 45.66028312 -2.0686512 50.88991165 C-2.09133655 58.45113308 -2.11948121 66.01232639 -2.14897048 73.57352398 C-2.19666278 85.84022774 -2.23992252 98.10694299 -2.28041077 110.37367249 C-2.31975736 122.29165033 -2.36118158 134.20961796 -2.40541077 146.12757874 C-2.40949717 147.22899193 -2.40949717 147.22899193 -2.41366614 148.3526559 C-2.42734548 152.03619629 -2.44106578 155.71973652 -2.45480645 159.40327668 C-2.56879696 189.97558149 -2.67552702 220.54790789 -2.77772522 251.12025452 C-3.10772522 251.12025452 -3.43772522 251.12025452 -3.77772522 251.12025452 C-3.80051496 219.28875508 -3.81822307 187.45725796 -3.82879055 155.62575227 C-3.83004133 151.87172241 -3.83133564 148.11769256 -3.83265686 144.36366272 C-3.83291917 143.61627134 -3.83318148 142.86887995 -3.83345174 142.09884035 C-3.83780857 129.98124283 -3.84569619 117.86365003 -3.85487802 105.74605531 C-3.86421419 93.32156444 -3.86978075 80.89707604 -3.87181371 68.4725818 C-3.87318902 60.79981898 -3.87754 53.12706949 -3.88564169 45.45431077 C-3.89152939 39.58078024 -3.89218427 33.70725664 -3.8908329 27.83372307 C-3.89110943 25.41691887 -3.89311713 23.00011419 -3.89693069 20.58331299 C-3.90186111 17.29934819 -3.90072593 14.01544181 -3.89797974 10.73147583 C-3.90089258 9.7616516 -3.90380542 8.79182737 -3.90680653 7.79261452 C-3.90481548 6.91977458 -3.90282443 6.04693463 -3.90077305 5.147645 C-3.90115277 4.38858406 -3.90153249 3.62952312 -3.90192372 2.84746033 C-3.68902284 -0.11331332 -2.98275673 0.12913083 0 0 Z " fill="#83C1EE" transform="translate(91.77772521972656,170.87974548339844)"/>
<path d="M0 0 C0.66 0.33 1.32 0.66 2 1 C2.495 2.485 2.495 2.485 3 4 C2.34 4 1.68 4 1 4 C1 4.66 1 5.32 1 6 C0.34 6 -0.32 6 -1 6 C-1 6.66 -1 7.32 -1 8 C-2.375 9.625 -2.375 9.625 -4 11 C-4.66 11 -5.32 11 -6 11 C-6 11.66 -6 12.32 -6 13 C-6.66 13 -7.32 13 -8 13 C-8 13.66 -8 14.32 -8 15 C-8.66 15 -9.32 15 -10 15 C-10 15.66 -10 16.32 -10 17 C-10.66 17 -11.32 17 -12 17 C-12 17.66 -12 18.32 -12 19 C-12.66 19 -13.32 19 -14 19 C-14 19.66 -14 20.32 -14 21 C-16.375 23.625 -16.375 23.625 -19 26 C-19.66 26 -20.32 26 -21 26 C-21 26.66 -21 27.32 -21 28 C-22.875 30.125 -22.875 30.125 -25 32 C-25.66 32 -26.32 32 -27 32 C-27 32.66 -27 33.32 -27 34 C-29.375 36.625 -29.375 36.625 -32 39 C-32.66 39 -33.32 39 -34 39 C-34 37.35 -34 35.7 -34 34 C-33.34 34 -32.68 34 -32 34 C-32 33.34 -32 32.68 -32 32 C-31.34 31.67 -30.68 31.34 -30 31 C-29.00283468 27.01133873 -28.9497283 23.9676931 -30 20 C-30.78375 20.495 -31.5675 20.99 -32.375 21.5 C-35 23 -35 23 -37 23 C-37.04125 23.61875 -37.0825 24.2375 -37.125 24.875 C-37.41375 25.57625 -37.7025 26.2775 -38 27 C-41.0625 28.25 -41.0625 28.25 -44 29 C-43.01 27.515 -43.01 27.515 -42 26 C-41.34 26 -40.68 26 -40 26 C-39.7628125 25.43796875 -39.525625 24.8759375 -39.28125 24.296875 C-37.71052303 21.48105958 -35.78528536 19.52044584 -33.5 17.25 C-32.7059375 16.45078125 -31.911875 15.6515625 -31.09375 14.828125 C-29 13 -29 13 -27 13 C-26.7525 12.401875 -26.505 11.80375 -26.25 11.1875 C-24.83629988 8.71352479 -23.34944617 7.56629745 -21 6 C-21.33 7.65 -21.66 9.3 -22 11 C-22.99 11 -23.98 11 -25 11 C-25.33 12.98 -25.66 14.96 -26 17 C-25.34 17 -24.68 17 -24 17 C-24 17.66 -24 18.32 -24 19 C-23.01 19.33 -22.02 19.66 -21 20 C-21 20.99 -21 21.98 -21 23 C-20.34 23 -19.68 23 -19 23 C-19.33 22.01 -19.66 21.02 -20 20 C-19.34 20 -18.68 20 -18 20 C-17.34 18.68 -16.68 17.36 -16 16 C-15.01 16.33 -14.02 16.66 -13 17 C-13 16.34 -13 15.68 -13 15 C-13.66 15 -14.32 15 -15 15 C-15.33 14.01 -15.66 13.02 -16 12 C-15.67 11.34 -15.34 10.68 -15 10 C-14.34 10 -13.68 10 -13 10 C-13 11.32 -13 12.64 -13 14 C-12.01 14 -11.02 14 -10 14 C-10.495 11.03 -10.495 11.03 -11 8 C-10.34 8 -9.68 8 -9 8 C-9 8.99 -9 9.98 -9 11 C-8.34 11 -7.68 11 -7 11 C-7.495 9.515 -7.495 9.515 -8 8 C-6.8125 6.5 -6.8125 6.5 -5 5 C-2.3125 4.8125 -2.3125 4.8125 0 5 C0 3.35 0 1.7 0 0 Z " fill="#2685C9" transform="translate(221,293)"/>
<path d="M0 0 C0.33 0.66 0.66 1.32 1 2 C0.505 2.94875 0.01 3.8975 -0.5 4.875 C-2.24813275 7.78713977 -2.24813275 7.78713977 -1.6875 10.375 C-1.460625 10.91125 -1.23375 11.4475 -1 12 C0.65 12 2.3 12 4 12 C2.52307692 17.66153846 2.52307692 17.66153846 -0.125 19.375 C-0.74375 19.58125 -1.3625 19.7875 -2 20 C-2 20.66 -2 21.32 -2 22 C-2.66 22 -3.32 22 -4 22 C-4 21.01 -4 20.02 -4 19 C-4.66 19 -5.32 19 -6 19 C-5.67 20.98 -5.34 22.96 -5 25 C-5.99 25 -6.98 25 -8 25 C-8 23.68 -8 22.36 -8 21 C-8.66 21 -9.32 21 -10 21 C-10 22.65 -10 24.3 -10 26 C-9.34 26 -8.68 26 -8 26 C-8 26.66 -8 27.32 -8 28 C-8.61875 28.061875 -9.2375 28.12375 -9.875 28.1875 C-12.27761141 28.828919 -12.27761141 28.828919 -13.25 31.5625 C-13.4975 32.366875 -13.745 33.17125 -14 34 C-14.66 34 -15.32 34 -16 34 C-16.495 32.515 -16.495 32.515 -17 31 C-17.66 30.67 -18.32 30.34 -19 30 C-19 29.34 -19 28.68 -19 28 C-19.66 28 -20.32 28 -21 28 C-20.67 26.02 -20.34 24.04 -20 22 C-19.01 22 -18.02 22 -17 22 C-16.79375 20.96875 -16.5875 19.9375 -16.375 18.875 C-15.09058327 14.30508249 -12.56655829 12.04643521 -9 9 C-8.34 9 -7.68 9 -7 9 C-6.773125 8.443125 -6.54625 7.88625 -6.3125 7.3125 C-4.64103234 4.36753316 -2.44723648 2.31843456 0 0 Z " fill="#0475CA" transform="translate(216,282)"/>
<path d="M0 0 C1.80619523 4.46236469 2.11658501 7.31034294 1 12 C0.01 12 -0.98 12 -2 12 C-2 12.66 -2 13.32 -2 14 C-2.69867188 14.09796875 -3.39734375 14.1959375 -4.1171875 14.296875 C-5.02726563 14.44640625 -5.93734375 14.5959375 -6.875 14.75 C-8.23238281 14.95882813 -8.23238281 14.95882813 -9.6171875 15.171875 C-12.16214243 15.77983843 -12.16214243 15.77983843 -13.3203125 18.078125 C-13.54460937 18.71234375 -13.76890625 19.3465625 -14 20 C-13.34 20 -12.68 20 -12 20 C-12.50603992 22.16874252 -12.99983813 23.99967627 -14 26 C-14.99 26 -15.98 26 -17 26 C-17 24.02 -17 22.04 -17 20 C-18.32 20.33 -19.64 20.66 -21 21 C-20.1875 18.5625 -20.1875 18.5625 -19 16 C-18.01 15.67 -17.02 15.34 -16 15 C-15.731875 14.030625 -15.46375 13.06125 -15.1875 12.0625 C-14.795625 11.051875 -14.40375 10.04125 -14 9 C-12.02111039 8.27306096 -10.02045442 7.60183749 -8 7 C-7.40929986 5.05396726 -7.40929986 5.05396726 -7 3 C-2.82142857 0 -2.82142857 0 0 0 Z " fill="#0375CA" transform="translate(191,313)"/>
<path d="M0 0 C0.33 1.32 0.66 2.64 1 4 C0.01 4 -0.98 4 -2 4 C-2.04125 4.721875 -2.0825 5.44375 -2.125 6.1875 C-3.39881294 10.28189875 -5.53428325 11.52448804 -9 14 C-9.66 14 -10.32 14 -11 14 C-10.67 14.66 -10.34 15.32 -10 16 C21.68 16.495 21.68 16.495 54 17 C54 17.66 54 18.32 54 19 C47.72762324 19.02520273 41.45527757 19.04309064 35.18286133 19.05493164 C33.06046026 19.0598812 30.93806244 19.0666425 28.81567383 19.07543945 C13.84814061 19.13580673 -1.0527044 18.79114989 -16 18 C-14.55695686 14.98590694 -13.13408132 12.89527984 -10.7421875 10.546875 C-10.11699219 9.928125 -9.49179687 9.309375 -8.84765625 8.671875 C-8.19667969 8.03765625 -7.54570312 7.4034375 -6.875 6.75 C-6.21628906 6.1003125 -5.55757813 5.450625 -4.87890625 4.78125 C-3.25703357 3.18288273 -1.6306719 1.58938103 0 0 Z " fill="#697E9A" transform="translate(376,310)"/>
<path d="M0 0 C0.02324732 7.94562663 0.04097795 15.89123886 0.05181217 23.83689117 C0.05701401 27.52701526 0.06406224 31.21711594 0.07543945 34.90722656 C0.08636475 38.4733859 0.09229713 42.03952284 0.09487724 45.60569763 C0.09760358 47.6173883 0.10540012 49.62907005 0.11329651 51.64074707 C0.11367498 57.85762223 -0.02228641 63.8563049 -1 70 C-1.33 70 -1.66 70 -2 70 C-2.495 38.32 -2.495 38.32 -3 6 C-4.485 8.475 -4.485 8.475 -6 11 C-10 11 -10 11 -12 10 C-10.54474941 8.51780033 -9.085701 7.03932861 -7.625 5.5625 C-6.81289063 4.73878906 -6.00078125 3.91507812 -5.1640625 3.06640625 C-1.95274102 0 -1.95274102 0 0 0 Z " fill="#1C6CA7" transform="translate(341,346)"/>
<path d="M0 0 C0.99 0.33 1.98 0.66 3 1 C1.88200014 2.33920838 0.75538103 3.67122556 -0.375 5 C-1.31472656 6.11375 -1.31472656 6.11375 -2.2734375 7.25 C-2.84320313 7.8275 -3.41296875 8.405 -4 9 C-4.66 9 -5.32 9 -6 9 C-6 9.66 -6 10.32 -6 11 C-7.75 12.7265625 -7.75 12.7265625 -10 14.625 C-10.7425 15.25664062 -11.485 15.88828125 -12.25 16.5390625 C-12.8275 17.02117187 -13.405 17.50328125 -14 18 C-17.54294351 14.82043531 -19.61816787 12.83654037 -20 8 C-20 7.01 -20 6.02 -20 5 C-20.33 4.34 -20.66 3.68 -21 3 C-20.34 3 -19.68 3 -19 3 C-19 2.34 -19 1.68 -19 1 C-17.35 1.33 -15.7 1.66 -14 2 C-14 2.66 -14 3.32 -14 4 C-12.68 4 -11.36 4 -10 4 C-9.67 5.32 -9.34 6.64 -9 8 C-8.01 7.34 -7.02 6.68 -6 6 C-5.01 5.67 -4.02 5.34 -3 5 C-2.6278958 3.67696283 -2.29369827 2.34262065 -2 1 C-1.34 0.67 -0.68 0.34 0 0 Z " fill="#13407D" transform="translate(338,267)"/>
<path d="M0 0 C23.1 0 46.2 0 70 0 C69.67 1.32 69.34 2.64 69 4 C68.34 4 67.68 4 67 4 C67 3.34 67 2.68 67 2 C58.55942974 2.0842808 50.11907303 2.17911561 41.67878151 2.28752708 C37.75984887 2.33753002 33.84094371 2.38385943 29.921875 2.421875 C26.14163767 2.4586777 22.36162809 2.50502343 18.58158493 2.55806351 C17.13749552 2.57663427 15.69335724 2.59173228 14.2491951 2.60334396 C12.23064937 2.62015992 10.21222812 2.65033105 8.19384766 2.68115234 C7.04357086 2.69447601 5.89329407 2.70779968 4.7081604 2.7215271 C1.85191072 2.72737638 1.85191072 2.72737638 0 5 C0 3.35 0 1.7 0 0 Z " fill="#87B0CB" transform="translate(89,171)"/>
<path d="M0 0 C0.33 0.99 0.66 1.98 1 3 C1.99 3 2.98 3 4 3 C3.49396008 5.16874252 3.00016187 6.99967627 2 9 C1.34 9 0.68 9 0 9 C0 9.66 0 10.32 0 11 C-0.66 11 -1.32 11 -2 11 C-2 11.66 -2 12.32 -2 13 C-2.66 13 -3.32 13 -4 13 C-4 13.66 -4 14.32 -4 15 C-4.66 15 -5.32 15 -6 15 C-6 15.66 -6 16.32 -6 17 C-6.66 17 -7.32 17 -8 17 C-8 17.66 -8 18.32 -8 19 C-10.375 21.625 -10.375 21.625 -13 24 C-13.66 24 -14.32 24 -15 24 C-15 24.66 -15 25.32 -15 26 C-16.98 26.99 -16.98 26.99 -19 28 C-19 25.69 -19 23.38 -19 21 C-18.34 21 -17.68 21 -17 21 C-16.34 19.68 -15.68 18.36 -15 17 C-13.02 17.33 -11.04 17.66 -9 18 C-8.67 15.69 -8.34 13.38 -8 11 C-6.35 11 -4.7 11 -3 11 C-3.33 10.01 -3.66 9.02 -4 8 C-3.01 8 -2.02 8 -1 8 C-1.66 6.35 -2.32 4.7 -3 3 C-2.01 2.01 -1.02 1.02 0 0 Z " fill="#368BC9" transform="translate(243,267)"/>
<path d="M0 0 C1 3 1 3 1 5 C0.34 5 -0.32 5 -1 5 C-1.33 5.99 -1.66 6.98 -2 8 C-2.66 8 -3.32 8 -4 8 C-4.33 8.99 -4.66 9.98 -5 11 C-5.65484375 11.27585937 -6.3096875 11.55171875 -6.984375 11.8359375 C-9.27637031 12.85790625 -9.27637031 12.85790625 -9.828125 15.6015625 C-9.96734375 16.59929687 -10.1065625 17.59703125 -10.25 18.625 C-10.39953125 19.62789063 -10.5490625 20.63078125 -10.703125 21.6640625 C-10.80109375 22.43492187 -10.8990625 23.20578125 -11 24 C-12.3303125 23.4740625 -12.3303125 23.4740625 -13.6875 22.9375 C-17.06203126 21.98244398 -18.69686152 22.02848868 -22 23 C-13.42585551 12.75285171 -13.42585551 12.75285171 -9 9 C-8.34 9 -7.68 9 -7 9 C-6.773125 8.443125 -6.54625 7.88625 -6.3125 7.3125 C-4.64103234 4.36753316 -2.44723648 2.31843456 0 0 Z " fill="#388EC8" transform="translate(244,254)"/>
<path d="M0 0 C1.54903164 2.85752028 2.47267121 5.50049524 3.18359375 8.66796875 C3.38919922 9.56193359 3.59480469 10.45589844 3.80664062 11.37695312 C4.01482422 12.30443359 4.22300781 13.23191406 4.4375 14.1875 C5.79869682 20.23774076 7.25811 26.12770683 9.36669922 31.96582031 C10.39667349 35.27412626 10.68695222 38.55647439 11 42 C10.01 41.67 9.02 41.34 8 41 C8 39.02 8 37.04 8 35 C7.34 35 6.68 35 6 35 C5.81824219 33.42798828 5.81824219 33.42798828 5.6328125 31.82421875 C5.46396055 30.44526114 5.29466659 29.06635761 5.125 27.6875 C5.04636719 26.99720703 4.96773438 26.30691406 4.88671875 25.59570312 C4.44056153 22.04360529 4.02019807 20.0302971 2 17 C1.01 17 0.02 17 -1 17 C-2.04449911 13.86650268 -1.93423645 13.01031744 -1 10 C-0.34 10 0.32 10 1 10 C0.67 9.34 0.34 8.68 0 8 C-0.13415472 5.3276379 -0.04318541 2.67749512 0 0 Z " fill="#2D87C6" transform="translate(123,221)"/>
<path d="M0 0 C-0.66 0.66 -1.32 1.32 -2 2 C-3.34171451 1.70218954 -4.67318947 1.35841694 -6 1 C-8.4157906 0.93168013 -10.83334713 0.91512358 -13.25 0.9375 C-15.14492188 0.95103516 -15.14492188 0.95103516 -17.078125 0.96484375 C-18.04234375 0.97644531 -19.0065625 0.98804688 -20 1 C-20.33 1.66 -20.66 2.32 -21 3 C-22.33333333 3.66666667 -23.66666667 4.33333333 -25 5 C-25.33 5.66 -25.66 6.32 -26 7 C-26.99 7 -27.98 7 -29 7 C-29.33 8.65 -29.66 10.3 -30 12 C-30.99 12 -31.98 12 -33 12 C-33 12.99 -33 13.98 -33 15 C-34.98 15.99 -34.98 15.99 -37 17 C-35.67587025 11.11497889 -32.3466542 7.03910791 -28 3 C-27.34 3 -26.68 3 -26 3 C-26 2.34 -26 1.68 -26 1 C-18.46196508 -3.3488663 -7.9002269 -3.32641132 0 0 Z " fill="#428FC7" transform="translate(294,202)"/>
<path d="M0 0 C1.32 0.66 2.64 1.32 4 2 C2.1875 4 2.1875 4 0 6 C-0.99 6 -1.98 6 -3 6 C-3.020625 6.70125 -3.04125 7.4025 -3.0625 8.125 C-4.43380309 12.33032949 -7.34740747 14.61031214 -11 17 C-13.23046875 17.671875 -13.23046875 17.671875 -15 18 C-15.33 19.32 -15.66 20.64 -16 22 C-17.32 21.34 -18.64 20.68 -20 20 C-13.4 13.4 -6.8 6.8 0 0 Z " fill="#2982C2" transform="translate(328,357)"/>
<path d="M0 0 C-0.33 1.65 -0.66 3.3 -1 5 C-0.34 5 0.32 5 1 5 C1 5.66 1 6.32 1 7 C0.38125 7.061875 -0.2375 7.12375 -0.875 7.1875 C-3.27761141 7.828919 -3.27761141 7.828919 -4.25 10.5625 C-4.4975 11.366875 -4.745 12.17125 -5 13 C-5.66 13 -6.32 13 -7 13 C-7.33 12.01 -7.66 11.02 -8 10 C-8.66 9.67 -9.32 9.34 -10 9 C-10 8.34 -10 7.68 -10 7 C-10.66 7 -11.32 7 -12 7 C-11.67 5.02 -11.34 3.04 -11 1 C-3.57142857 -1.42857143 -3.57142857 -1.42857143 0 0 Z " fill="#0276CB" transform="translate(207,303)"/>
<path d="M0 0 C0.66 0.33 1.32 0.66 2 1 C1.67 2.98 1.34 4.96 1 7 C1.99 7 2.98 7 4 7 C4.66 6.01 5.32 5.02 6 4 C6.99 4 7.98 4 9 4 C9 4.66 9 5.32 9 6 C8.34 6 7.68 6 7 6 C7 8.31 7 10.62 7 13 C6.01 13.495 6.01 13.495 5 14 C4.67 13.01 4.34 12.02 4 11 C4 12.65 4 14.3 4 16 C3.34 16 2.68 16 2 16 C1.67 15.01 1.34 14.02 1 13 C-1.01508358 12.26676204 -1.01508358 12.26676204 -3 12 C-3.33 10.02 -3.66 8.04 -4 6 C-3.34 5.67 -2.68 5.34 -2 5 C-1.27840576 3.35636866 -0.60648579 1.68949614 0 0 Z " fill="#0574C4" transform="translate(217,282)"/>
<path d="M0 0 C1.50662097 3.01324195 1.17770373 5.68286377 1 9 C0.34 9.66 -0.32 10.32 -1 11 C-1.7396213 16.92950634 -0.74738421 23.11434934 0 29 C0.99 29.33 1.98 29.66 3 30 C3 30.99 3 31.98 3 33 C2.34 32.67 1.68 32.34 1 32 C1 31.34 1 30.68 1 30 C0.34 30 -0.32 30 -1 30 C-3.49728083 24.91270113 -4.51916718 20.71125825 -4.4375 15 C-4.43427734 14.29810547 -4.43105469 13.59621094 -4.42773438 12.87304688 C-4.28110355 7.45781866 -3.35357373 4.19196716 0 0 Z " fill="#44628E" transform="translate(170,207)"/>
<path d="M0 0 C1 2 1 2 0.25 4.5625 C-1 7 -1 7 -4 8 C-4.33 8.66 -4.66 9.32 -5 10 C-5.66 10 -6.32 10 -7 10 C-7 11.65 -7 13.3 -7 15 C-8.65 15 -10.3 15 -12 15 C-12.20625 15.61875 -12.4125 16.2375 -12.625 16.875 C-14.54775888 19.84653645 -16.66594527 20.13024659 -20 21 C-19.0919838 19.86800647 -18.17316174 18.74467637 -17.25 17.625 C-16.48429688 16.68527344 -16.48429688 16.68527344 -15.703125 15.7265625 C-13.91800519 13.91687682 -12.32050356 12.99882545 -10 12 C-10 11.34 -10 10.68 -10 10 C-9.34 10 -8.68 10 -8 10 C-7.79375 9.46375 -7.5875 8.9275 -7.375 8.375 C-5.42003056 4.9982346 -2.81776305 2.69525161 0 0 Z " fill="#3C8CC0" transform="translate(176,322)"/>
<path d="M0 0 C0 1.98 0 3.96 0 6 C-0.66 6 -1.32 6 -2 6 C-2 6.66 -2 7.32 -2 8 C-5.37462715 7.45276317 -7.08235 6.9451 -10 5 C-9.67 3.35 -9.34 1.7 -9 0 C-5.62182575 -0.84454356 -3.32534757 -1.10844919 0 0 Z " fill="#0976C6" transform="translate(187,328)"/>
<path d="M0 0 C1.32 0 2.64 0 4 0 C2.69059675 4.12427012 1.34300587 5.89589716 -2.3125 8.1875 C-3.07175781 8.67605469 -3.83101562 9.16460937 -4.61328125 9.66796875 C-9.5482302 12.42217103 -13.12243671 13.23995077 -18.8125 13.125 C-19.97394531 13.10695312 -21.13539063 13.08890625 -22.33203125 13.0703125 C-23.21246094 13.04710937 -24.09289062 13.02390625 -25 13 C-25 12.67 -25 12.34 -25 12 C-23.87851563 11.92652344 -23.87851563 11.92652344 -22.734375 11.8515625 C-21.25710937 11.73941406 -21.25710937 11.73941406 -19.75 11.625 C-18.77546875 11.55539063 -17.8009375 11.48578125 -16.796875 11.4140625 C-13.22789616 10.88569412 -10.94057762 9.97820072 -8.4375 7.375 C-7 6 -7 6 -4 6 C-3.67 5.34 -3.34 4.68 -3 4 C-1.68 4 -0.36 4 1 4 C0.67 2.68 0.34 1.36 0 0 Z " fill="#5C7A9E" transform="translate(211,236)"/>
<path d="M0 0 C0.99 0 1.98 0 3 0 C3 0.66 3 1.32 3 2 C4.65 1.67 6.3 1.34 8 1 C8 1.66 8 2.32 8 3 C7.34 3 6.68 3 6 3 C6 3.66 6 4.32 6 5 C4.35546875 6.65625 4.35546875 6.65625 2.1875 8.5 C1.47980469 9.1084375 0.77210938 9.716875 0.04296875 10.34375 C-2 12 -2 12 -5 14 C-5 12.68 -5 11.36 -5 10 C-4.34 9.67 -3.68 9.34 -3 9 C-3.33 7.68 -3.66 6.36 -4 5 C-2.02 4.67 -0.04 4.34 2 4 C2 3.34 2 2.68 2 2 C1.01 1.67 0.02 1.34 -1 1 C-0.67 0.67 -0.34 0.34 0 0 Z " fill="#2A85C8" transform="translate(145,178)"/>
<path d="M0 0 C1.86527924 2.79791887 2.47823635 4.35306148 3.21875 7.53515625 C3.42886719 8.42783203 3.63898438 9.32050781 3.85546875 10.24023438 C4.06816406 11.17158203 4.28085938 12.10292969 4.5 13.0625 C4.71269531 13.96677734 4.92539063 14.87105469 5.14453125 15.80273438 C6.55259054 21.84529556 7.81895678 27.90921494 9 34 C8.01 34.495 8.01 34.495 7 35 C7 32.36 7 29.72 7 27 C6.34 27 5.68 27 5 27 C5 25.35 5 23.7 5 22 C4.34 22 3.68 22 3 22 C1.13905228 14.6802723 0.44238385 7.53216715 0 0 Z " fill="#5098C8" transform="translate(138,279)"/>
<path d="M0 0 C1.32 0.33 2.64 0.66 4 1 C3.67 1.66 3.34 2.32 3 3 C2.34 3 1.68 3 1 3 C1 3.66 1 4.32 1 5 C0.34 5 -0.32 5 -1 5 C-1.226875 5.556875 -1.45375 6.11375 -1.6875 6.6875 C-3.37550036 9.66159588 -5.46676517 11.72008865 -8 14 C-8.66 14 -9.32 14 -10 14 C-10 14.66 -10 15.32 -10 16 C-10.66 16 -11.32 16 -12 16 C-11.67 14.35 -11.34 12.7 -11 11 C-10.01 11.33 -9.02 11.66 -8 12 C-7.9175 11.46375 -7.835 10.9275 -7.75 10.375 C-6.71645212 7.10209837 -5.09046389 4.70530621 -3 2 C-2.01 2 -1.02 2 0 2 C0 1.34 0 0.68 0 0 Z " fill="#5F7392" transform="translate(193,135)"/>
<path d="M0 0 C0.33 1.32 0.66 2.64 1 4 C0.01 4 -0.98 4 -2 4 C-2.04125 4.721875 -2.0825 5.44375 -2.125 6.1875 C-3.36589126 10.17607904 -5.6718416 11.58545371 -9 14 C-10.32608822 14.68096422 -11.65686601 15.35330586 -13 16 C-13.33 16.66 -13.66 17.32 -14 18 C-14.66 18 -15.32 18 -16 18 C-14.6415798 14.95667235 -13.11536976 12.87690849 -10.7421875 10.546875 C-10.11699219 9.928125 -9.49179687 9.309375 -8.84765625 8.671875 C-8.19667969 8.03765625 -7.54570312 7.4034375 -6.875 6.75 C-6.21628906 6.1003125 -5.55757813 5.450625 -4.87890625 4.78125 C-3.25703357 3.18288273 -1.6306719 1.58938103 0 0 Z " fill="#405F8A" transform="translate(376,310)"/>
<path d="M0 0 C0.66 1.32 1.32 2.64 2 4 C1.01 4.33 0.02 4.66 -1 5 C-1.34402638 6.33061442 -1.67571751 7.66443654 -2 9 C-3.55859375 10.921875 -3.55859375 10.921875 -5.4375 12.75 C-6.05496094 13.36359375 -6.67242187 13.9771875 -7.30859375 14.609375 C-9 16 -9 16 -11 16 C-11.33 16.99 -11.66 17.98 -12 19 C-12.99 19 -13.98 19 -15 19 C-14.505 17.515 -14.505 17.515 -14 16 C-13.34 16 -12.68 16 -12 16 C-12 15.34 -12 14.68 -12 14 C-11.34 14 -10.68 14 -10 14 C-10 13.34 -10 12.68 -10 12 C-9.34 12 -8.68 12 -8 12 C-8 11.34 -8 10.68 -8 10 C-7.34 10 -6.68 10 -6 10 C-6 9.34 -6 8.68 -6 8 C-5.34 8 -4.68 8 -4 8 C-4 7.34 -4 6.68 -4 6 C-3.34 6 -2.68 6 -2 6 C-2 5.34 -2 4.68 -2 4 C-1.34 4 -0.68 4 0 4 C0 2.68 0 1.36 0 0 Z M2 2 C2.99 2.495 2.99 2.495 4 3 C3.01 3.495 3.01 3.495 2 4 C2 3.34 2 2.68 2 2 Z " fill="#506A8F" transform="translate(377,208)"/>
<path d="M0 0 C0.96661363 3.12180401 0.98988909 5.52083795 0.5625 8.75 C0.46066406 9.54921875 0.35882813 10.3484375 0.25390625 11.171875 C0.17011719 11.77515625 0.08632813 12.3784375 0 13 C-0.33 13 -0.66 13 -1 13 C-1.33 10.69 -1.66 8.38 -2 6 C-2.4125 6.825 -2.825 7.65 -3.25 8.5 C-4.11625 9.7375 -4.11625 9.7375 -5 11 C-9 11 -9 11 -11 10 C-9.54474941 8.51780033 -8.085701 7.03932861 -6.625 5.5625 C-5.81289063 4.73878906 -5.00078125 3.91507812 -4.1640625 3.06640625 C-2 1 -2 1 0 0 Z " fill="#3A86B6" transform="translate(340,346)"/>
<path d="M0 0 C1.32 0.66 2.64 1.32 4 2 C4 2.66 4 3.32 4 4 C3.34 4 2.68 4 2 4 C2 4.66 2 5.32 2 6 C1.34 6 0.68 6 0 6 C0 6.66 0 7.32 0 8 C-1.62553283 9.70680947 -3.29115995 11.37660195 -5 13 C-5.66 12.67 -6.32 12.34 -7 12 C-7 10.02 -7 8.04 -7 6 C-6.21625 5.938125 -5.4325 5.87625 -4.625 5.8125 C-3.75875 5.544375 -2.8925 5.27625 -2 5 C-0.62533375 2.52363988 -0.62533375 2.52363988 0 0 Z " fill="#3F90CA" transform="translate(179,334)"/>
<path d="M0 0 C0.08226668 3.04386724 -0.02391783 5.07175348 -1 8 C-2.65 8.33 -4.3 8.66 -6 9 C-6 8.34 -6 7.68 -6 7 C-6.99 7.33 -7.98 7.66 -9 8 C-7.47364599 4.11473526 -4.49771687 0 0 0 Z M-8 9 C-7.34 9.33 -6.68 9.66 -6 10 C-6.99 10.66 -7.98 11.32 -9 12 C-8.67 11.01 -8.34 10.02 -8 9 Z " fill="#2E538A" transform="translate(270,293)"/>
<path d="M0 0 C8.4178968 1.73273496 16.73934268 3.62295371 25 6 C23.02 6.99 23.02 6.99 21 8 C21 7.34 21 6.68 21 6 C19.56260487 5.97287934 18.12506137 5.95354933 16.6875 5.9375 C15.88699219 5.92589844 15.08648437 5.91429687 14.26171875 5.90234375 C11.83138666 5.90342145 11.83138666 5.90342145 9 7 C8.62875 6.566875 8.2575 6.13375 7.875 5.6875 C5.48718905 3.53847015 2.8980432 2.35242016 0 1 C0 0.67 0 0.34 0 0 Z " fill="#4894C9" transform="translate(269,383)"/>
<path d="M0 0 C-0.66 0.66 -1.32 1.32 -2 2 C-3.34171451 1.70218954 -4.67318947 1.35841694 -6 1 C-8.4157906 0.93168013 -10.83334713 0.91512358 -13.25 0.9375 C-15.14492188 0.95103516 -15.14492188 0.95103516 -17.078125 0.96484375 C-18.04234375 0.97644531 -19.0065625 0.98804688 -20 1 C-20.33 1.66 -20.66 2.32 -21 3 C-22.65 3 -24.3 3 -26 3 C-26 2.34 -26 1.68 -26 1 C-18.46196508 -3.3488663 -7.9002269 -3.32641132 0 0 Z " fill="#569DC9" transform="translate(294,202)"/>
<path d="M0 0 C0.33 0 0.66 0 1 0 C1.19335938 0.78503906 1.38671875 1.57007813 1.5859375 2.37890625 C1.84632813 3.42949219 2.10671875 4.48007812 2.375 5.5625 C2.64570313 6.65691406 2.91640625 7.75132812 3.1953125 8.87890625 C3.81571307 11.2852172 4.49445041 13.63502629 5.25 16 C5.97430485 18.8972194 6.09357117 20.26607207 5 23 C4.01 22.67 3.02 22.34 2 22 C1.93941406 21.21753906 1.87882813 20.43507813 1.81640625 19.62890625 C1.73261719 18.61699219 1.64882812 17.60507812 1.5625 16.5625 C1.48128906 15.55316406 1.40007812 14.54382813 1.31640625 13.50390625 C1.26788532 11.06359221 1.26788532 11.06359221 0 10 C-0.07205511 8.31391034 -0.08386068 6.62499341 -0.0625 4.9375 C-0.05347656 4.01839844 -0.04445312 3.09929687 -0.03515625 2.15234375 C-0.02355469 1.44207031 -0.01195312 0.73179687 0 0 Z " fill="#4A97CA" transform="translate(147,313)"/>
<path d="M0 0 C2.11614507 3.17421761 2.68926138 5.36570814 3.5 9.0625 C3.75394531 10.21234375 4.00789062 11.3621875 4.26953125 12.546875 C5.21668508 17.02432949 6.13760941 21.50542318 7 26 C6.01 25.67 5.02 25.34 4 25 C4 23.02 4 21.04 4 19 C3.34 19 2.68 19 2 19 C1.34 12.73 0.68 6.46 0 0 Z " fill="#4B93C5" transform="translate(127,237)"/>
<path d="M0 0 C5.94 0.99 5.94 0.99 12 2 C12 2.33 12 2.66 12 3 C13.65 3.33 15.3 3.66 17 4 C17.33 4.99 17.66 5.98 18 7 C11.51527007 6.26309887 5.30760257 4.64681249 -1 3 C-0.67 2.01 -0.34 1.02 0 0 Z " fill="#446593" transform="translate(242,113)"/>
<path d="M0 0 C3.94051098 0.6126859 7.76209141 1.39223762 11.6171875 2.41015625 C12.63554687 2.67763672 13.65390625 2.94511719 14.703125 3.22070312 C16.27320313 3.63739258 16.27320313 3.63739258 17.875 4.0625 C18.94492188 4.34416016 20.01484375 4.62582031 21.1171875 4.91601562 C23.74543507 5.60827726 26.37300335 6.30300924 29 7 C29 7.33 29 7.66 29 8 C26.66705225 8.04241723 24.33297433 8.04092937 22 8 C21.67 7.67 21.34 7.34 21 7 C19.31816052 6.76712992 17.6287584 6.58735834 15.9375 6.4375 C15.01839844 6.35371094 14.09929687 6.26992188 13.15234375 6.18359375 C12.08693359 6.09271484 12.08693359 6.09271484 11 6 C10.67 5.01 10.34 4.02 10 3 C8.906875 2.87625 7.81375 2.7525 6.6875 2.625 C3 2 3 2 0 0 Z " fill="#64A4CE" transform="translate(226,371)"/>
<path d="M0 0 C0 3.67718093 -0.82184858 5.07076189 -3 8 C-4.66392045 8.67349161 -6.33032028 9.3409159 -8 10 C-8.144375 10.66 -8.28875 11.32 -8.4375 12 C-8.623125 12.66 -8.80875 13.32 -9 14 C-12.0625 15.25 -12.0625 15.25 -15 16 C-14.34 15.01 -13.68 14.02 -13 13 C-12.34 13 -11.68 13 -11 13 C-10.76539063 12.43796875 -10.53078125 11.8759375 -10.2890625 11.296875 C-8.69337 8.45364109 -6.71075457 6.51901873 -4.375 4.25 C-3.55773437 3.45078125 -2.74046875 2.6515625 -1.8984375 1.828125 C-0.95871094 0.92320312 -0.95871094 0.92320312 0 0 Z " fill="#5FA4CA" transform="translate(192,306)"/>
<path d="M0 0 C0.66 0.33 1.32 0.66 2 1 C1.3125 3.375 1.3125 3.375 0 6 C-1.65204456 6.70211894 -3.31923769 7.36971413 -5 8 C-5.309375 8.61875 -5.61875 9.2375 -5.9375 9.875 C-7.50874039 13.01748078 -10.05927508 14.20999352 -13 16 C-13 15.01 -13 14.02 -13 13 C-12.34 13 -11.68 13 -11 13 C-11 12.34 -11 11.68 -11 11 C-10.34 11 -9.68 11 -9 11 C-9 10.34 -9 9.68 -9 9 C-8.34 9 -7.68 9 -7 9 C-7 8.34 -7 7.68 -7 7 C-6.34 7 -5.68 7 -5 7 C-5 6.34 -5 5.68 -5 5 C-4.34 5 -3.68 5 -3 5 C-3 4.34 -3 3.68 -3 3 C-2.34 3 -1.68 3 -1 3 C-0.67 2.01 -0.34 1.02 0 0 Z " fill="#647D9E" transform="translate(335,252)"/>
<path d="M0 0 C0.33 0.99 0.66 1.98 1 3 C-1 6 -1 6 -3.625 6.6875 C-4.40875 6.790625 -5.1925 6.89375 -6 7 C-10 2.125 -10 2.125 -10 1 C-3.375 0 -3.375 0 0 0 Z " fill="#0575C6" transform="translate(156,173)"/>
<path d="M0 0 C0.12375 0.639375 0.2475 1.27875 0.375 1.9375 C0.58125 2.618125 0.7875 3.29875 1 4 C1.66 4.33 2.32 4.66 3 5 C2.67 5.66 2.34 6.32 2 7 C2.66 7 3.32 7 4 7 C5.14077657 10.42232972 5.09815117 13.08673217 5.0625 16.6875 C5.05347656 17.86699219 5.04445313 19.04648437 5.03515625 20.26171875 C5.02355469 21.16535156 5.01195312 22.06898438 5 23 C4.34 22.67 3.68 22.34 3 22 C3.061875 21.21625 3.12375 20.4325 3.1875 19.625 C3.01784801 16.3450615 2.49303325 14.08632868 1.5 11 C0.27592465 7.19559679 -0.31855158 4.03498673 0 0 Z " fill="#577396" transform="translate(393,268)"/>
<path d="M0 0 C0.33 0 0.66 0 1 0 C1.50435694 1.9363704 2.00333874 3.87414146 2.5 5.8125 C2.7784375 6.89144531 3.056875 7.97039062 3.34375 9.08203125 C4 12 4 12 4 15 C3.01 14.67 2.02 14.34 1 14 C0.9175 13.21625 0.835 12.4325 0.75 11.625 C0.27193661 8.85250896 0.27193661 8.85250896 -2.0625 7.6875 C-2.701875 7.460625 -3.34125 7.23375 -4 7 C-3.67 6.01 -3.34 5.02 -3 4 C-2.01 4 -1.02 4 0 4 C0 2.68 0 1.36 0 0 Z " fill="#3B90CB" transform="translate(134,263)"/>
<path d="M0 0 C0.66 0.99 1.32 1.98 2 3 C0.71034824 4.37562854 -0.62689293 5.70766393 -2 7 C-2.66 7 -3.32 7 -4 7 C-4.28875 7.639375 -4.5775 8.27875 -4.875 8.9375 C-6 11 -6 11 -8 12 C-8.66 11.34 -9.32 10.68 -10 10 C-6.7 6.7 -3.4 3.4 0 0 Z " fill="#365789" transform="translate(391,295)"/>
<path d="M0 0 C0.99 0.33 1.98 0.66 3 1 C-0.3810038 5.13621084 -3.66590534 8.81316569 -8 12 C-8.33 10.02 -8.66 8.04 -9 6 C-8.401875 5.896875 -7.80375 5.79375 -7.1875 5.6875 C-4.70138466 4.90614947 -3.77056558 3.85104584 -2 2 C-1.34 2 -0.68 2 0 2 C0 1.34 0 0.68 0 0 Z " fill="#6781A0" transform="translate(206,123)"/>
<path d="M0 0 C1.32 0.66 2.64 1.32 4 2 C2.1875 4 2.1875 4 0 6 C-0.99 6 -1.98 6 -3 6 C-3.33 6.99 -3.66 7.98 -4 9 C-5.65 9.33 -7.3 9.66 -9 10 C-8.06409496 8.8944811 -7.12620142 7.79064547 -6.1875 6.6875 C-5.66542969 6.07261719 -5.14335937 5.45773437 -4.60546875 4.82421875 C-3.12827531 3.14575321 -1.59960869 1.56117966 0 0 Z " fill="#4B99C9" transform="translate(328,357)"/>
<path d="M0 0 C0.33 1.32 0.66 2.64 1 4 C0.01 4.33 -0.98 4.66 -2 5 C-2.33 5.99 -2.66 6.98 -3 8 C-4.62935241 9.37868281 -6.29749607 10.71274093 -8 12 C-8.66 12.66 -9.32 13.32 -10 14 C-10.66 13.67 -11.32 13.34 -12 13 C-12 12.34 -12 11.68 -12 11 C-11.34 11 -10.68 11 -10 11 C-10 10.34 -10 9.68 -10 9 C-8.3203125 7.34375 -8.3203125 7.34375 -6.125 5.5 C-4.00964496 3.71066742 -1.95980876 1.95980876 0 0 Z " fill="#4B6A92" transform="translate(275,129)"/>
<path d="M0 0 C0.66 0.33 1.32 0.66 2 1 C2.33 1.99 2.66 2.98 3 4 C2.34 4 1.68 4 1 4 C1 4.66 1 5.32 1 6 C0.34 6 -0.32 6 -1 6 C-1 6.66 -1 7.32 -1 8 C-2.375 9.625 -2.375 9.625 -4 11 C-4.66 11 -5.32 11 -6 11 C-6 11.66 -6 12.32 -6 13 C-6.66 12.67 -7.32 12.34 -8 12 C-7.25 7.25 -7.25 7.25 -5 5 C-2.375 4.875 -2.375 4.875 0 5 C0 3.35 0 1.7 0 0 Z " fill="#519ACE" transform="translate(221,293)"/>
<path d="M0 0 C0.66 0.33 1.32 0.66 2 1 C0.125 4.875 0.125 4.875 -1 6 C-6.62498715 6.44999897 -10.06143138 5.41889075 -15 3 C-15 2.67 -15 2.34 -15 2 C-13.56208484 2.14168137 -12.1246763 2.28851043 -10.6875 2.4375 C-9.88699219 2.51871094 -9.08648437 2.59992188 -8.26171875 2.68359375 C-6 3 -6 3 -3 4 C-2.67 3.34 -2.34 2.68 -2 2 C-1.34 2 -0.68 2 0 2 C0 1.34 0 0.68 0 0 Z " fill="#59759B" transform="translate(209,194)"/>
<path d="M0 0 C0.66 0 1.32 0 2 0 C4.69554677 6.68026809 6.97198492 12.76938861 5 20 C4.67 20 4.34 20 4 20 C4 16.37 4 12.74 4 9 C3.34 9 2.68 9 2 9 C1.34 6.03 0.68 3.06 0 0 Z " fill="#4E6A99" transform="translate(304,302)"/>
<path d="M0 0 C0.33 0.99 0.66 1.98 1 3 C1.99 3 2.98 3 4 3 C3.49396008 5.16874252 3.00016187 6.99967627 2 9 C1.34 9 0.68 9 0 9 C0 9.66 0 10.32 0 11 C-0.66 10.67 -1.32 10.34 -2 10 C-1.979375 9.21625 -1.95875 8.4325 -1.9375 7.625 C-1.81315937 5.01885039 -1.81315937 5.01885039 -3 3 C-2.01 2.01 -1.02 1.02 0 0 Z " fill="#2C87C7" transform="translate(243,267)"/>
<path d="M0 0 C0.99 0.33 1.98 0.66 3 1 C2.67 1.66 2.34 2.32 2 3 C1.34 3 0.68 3 0 3 C0 3.66 0 4.32 0 5 C-0.66 5 -1.32 5 -2 5 C-2 5.66 -2 6.32 -2 7 C-2.66 7 -3.32 7 -4 7 C-4 7.66 -4 8.32 -4 9 C-4.66 9 -5.32 9 -6 9 C-6 9.66 -6 10.32 -6 11 C-6.66 11 -7.32 11 -8 11 C-7.52794881 6.75153925 -5.11122478 4.73180712 -2 2 C-1.34 2 -0.68 2 0 2 C0 1.34 0 0.68 0 0 Z " fill="#47688E" transform="translate(232,189)"/>
<path d="M0 0 C3 2 3 2 3.51171875 4.1640625 C3.56972656 4.97617188 3.62773437 5.78828125 3.6875 6.625 C3.75324219 7.44226563 3.81898438 8.25953125 3.88671875 9.1015625 C3.92410156 9.72804687 3.96148437 10.35453125 4 11 C4.99 11.33 5.98 11.66 7 12 C7 12.99 7 13.98 7 15 C6.34 14.67 5.68 14.34 5 14 C5 13.34 5 12.68 5 12 C4.34 12 3.68 12 3 12 C-0.42857143 4.71428571 -0.42857143 4.71428571 0 0 Z " fill="#54739B" transform="translate(166,225)"/>
<path d="M0 0 C4.35763296 0.5028038 6.91905734 3.05301137 10 6 C11.375 8.8125 11.375 8.8125 12 11 C9.5 9.625 9.5 9.625 7 8 C7 7.34 7 6.68 7 6 C6.360625 5.731875 5.72125 5.46375 5.0625 5.1875 C3 4 3 4 2 1 C1.34 0.67 0.68 0.34 0 0 Z " fill="#5098C6" transform="translate(294,203)"/>
<path d="M0 0 C5.46864457 1.01591421 10.76390013 2.07091057 16 4 C15.34 4.66 14.68 5.32 14 6 C11.69 5.34 9.38 4.68 7 4 C7 3.34 7 2.68 7 2 C4.36 2.33 1.72 2.66 -1 3 C-0.67 2.01 -0.34 1.02 0 0 Z " fill="#589BC9" transform="translate(201,364)"/>
<path d="M0 0 C0.99 0 1.98 0 3 0 C2.67 1.65 2.34 3.3 2 5 C1.34 5 0.68 5 0 5 C0 5.66 0 6.32 0 7 C-0.66 7 -1.32 7 -2 7 C-2 7.66 -2 8.32 -2 9 C-2.66 9 -3.32 9 -4 9 C-4.33 9.66 -4.66 10.32 -5 11 C-5.20086443 7.28400809 -5.1519437 6.22791555 -3 3 C-1.68 3 -0.36 3 1 3 C0.67 2.01 0.34 1.02 0 0 Z " fill="#4893C6" transform="translate(239,275)"/>
<path d="M0 0 C0.33 0 0.66 0 1 0 C1.66 3.3 2.32 6.6 3 10 C3.66 10 4.32 10 5 10 C5.125 15.75 5.125 15.75 4 18 C3.34 17.67 2.68 17.34 2 17 C0.27321666 11.43592034 -0.25182442 5.79196155 0 0 Z " fill="#539ACA" transform="translate(256,223)"/>
<path d="M0 0 C1.32 0.33 2.64 0.66 4 1 C3.814375 1.61875 3.62875 2.2375 3.4375 2.875 C2.76313824 5.04160178 2.76313824 5.04160178 4 7 C1.36 7.66 -1.28 8.32 -4 9 C-3.67 8.01 -3.34 7.02 -3 6 C-2.34 6 -1.68 6 -1 6 C-1 5.34 -1 4.68 -1 4 C-0.34 4 0.32 4 1 4 C0.67 2.68 0.34 1.36 0 0 Z " fill="#348BC9" transform="translate(165,348)"/>
<path d="M0 0 C1 3 1 3 1 5 C0.34 5 -0.32 5 -1 5 C-1.33 5.99 -1.66 6.98 -2 8 C-3.65 8.33 -5.3 8.66 -7 9 C-5.44499019 5.18315774 -2.96404505 2.80804268 0 0 Z " fill="#539EC9" transform="translate(244,254)"/>
<path d="M0 0 C1.32 0 2.64 0 4 0 C4 0.66 4 1.32 4 2 C3.34 2 2.68 2 2 2 C2 2.66 2 3.32 2 4 C1.34 4 0.68 4 0 4 C0 4.66 0 5.32 0 6 C-0.66 6 -1.32 6 -2 6 C-2 6.66 -2 7.32 -2 8 C-2.66 8 -3.32 8 -4 8 C-4.33 8.66 -4.66 9.32 -5 10 C-4.67 8.02 -4.34 6.04 -4 4 C-3.01 4 -2.02 4 -1 4 C-0.67 2.68 -0.34 1.36 0 0 Z " fill="#40628A" transform="translate(241,179)"/>
<path d="M0 0 C3.63 0.66 7.26 1.32 11 2 C6.91542429 4.04228786 5.3648381 4 1 4 C0.01 4.66 -0.98 5.32 -2 6 C-1.34 4.02 -0.68 2.04 0 0 Z " fill="#0972BF" transform="translate(244,377)"/>
<path d="M0 0 C0.66 0.33 1.32 0.66 2 1 C2 1.99 2 2.98 2 4 C1.34 4 0.68 4 0 4 C-0.33 5.32 -0.66 6.64 -1 8 C-1.33 7.34 -1.66 6.68 -2 6 C-2.66 6 -3.32 6 -4 6 C-3.67 6.99 -3.34 7.98 -3 9 C-3.99 9 -4.98 9 -6 9 C-6.33 8.34 -6.66 7.68 -7 7 C-6.34 7 -5.68 7 -5 7 C-5 6.34 -5 5.68 -5 5 C-4.34 5 -3.68 5 -3 5 C-3 4.34 -3 3.68 -3 3 C-1.5 1.375 -1.5 1.375 0 0 Z " fill="#527099" transform="translate(309,278)"/>
<path d="M0 0 C0.66 0.33 1.32 0.66 2 1 C-0.09663099 4.97256398 -2.30075595 7.43898489 -6 10 C-6.66 10 -7.32 10 -8 10 C-8 9.34 -8 8.68 -8 8 C-7.34 8 -6.68 8 -6 8 C-6 7.34 -6 6.68 -6 6 C-5.34 6 -4.68 6 -4 6 C-4 5.34 -4 4.68 -4 4 C-3.34 4 -2.68 4 -2 4 C-2 3.34 -2 2.68 -2 2 C-1.34 2 -0.68 2 0 2 C0 1.34 0 0.68 0 0 Z " fill="#587296" transform="translate(360,227)"/>
<path d="M0 0 C0.99 0 1.98 0 3 0 C1.61811547 3.21043882 0.07578097 5.04936365 -2.625 7.25 C-3.57246094 8.03117188 -3.57246094 8.03117188 -4.5390625 8.828125 C-5.02117187 9.21484375 -5.50328125 9.6015625 -6 10 C-6.33 9.34 -6.66 8.68 -7 8 C-6.34 8 -5.68 8 -5 8 C-5 6.68 -5 5.36 -5 4 C-3.68 4 -2.36 4 -1 4 C-0.67 2.68 -0.34 1.36 0 0 Z " fill="#458FC3" transform="translate(129,199)"/>
<path d="M0 0 C0.33 0.99 0.66 1.98 1 3 C-1.05078125 3.22786458 -3.1015625 3.45572917 -5.15234375 3.68359375 C-7.01140229 3.81886614 -7.01140229 3.81886614 -8 5 C-9.99958364 5.04080783 -12.00045254 5.04254356 -14 5 C-10.98552165 2.42924159 -8.64020229 1.47792934 -4.75 0.8125 C-3.85796875 0.65394531 -2.9659375 0.49539062 -2.046875 0.33203125 C-1.37140625 0.22246094 -0.6959375 0.11289063 0 0 Z " fill="#506B91" transform="translate(192,195)"/>
<path d="M0 0 C1.32 0.33 2.64 0.66 4 1 C3.67 1.66 3.34 2.32 3 3 C2.34 3 1.68 3 1 3 C1 3.66 1 4.32 1 5 C0.34 5 -0.32 5 -1 5 C-1.33 5.99 -1.66 6.98 -2 8 C-2.66 7.34 -3.32 6.68 -4 6 C-3.625 3.875 -3.625 3.875 -3 2 C-2.01 2 -1.02 2 0 2 C0 1.34 0 0.68 0 0 Z " fill="#3F5D89" transform="translate(193,135)"/>
<path d="M0 0 C6.07328688 -0.50610724 9.77228537 0.95842058 15 4 C11.28233332 5.23922223 9.56110463 4.57018942 5.8125 3.5625 C4.72582031 3.27503906 3.63914063 2.98757813 2.51953125 2.69140625 C1.68808594 2.46324219 0.85664063 2.23507812 0 2 C0 1.34 0 0.68 0 0 Z " fill="#2A7FBB" transform="translate(216,369)"/>
<path d="M0 0 C2 1 2 1 3 3 C2.01 3.33 1.02 3.66 0 4 C-0.33 4.66 -0.66 5.32 -1 6 C-1.66 6 -2.32 6 -3 6 C-3 6.66 -3 7.32 -3 8 C-4.32 7.67 -5.64 7.34 -7 7 C-4.69 4.69 -2.38 2.38 0 0 Z " fill="#58A0CA" transform="translate(207,291)"/>
<path d="M0 0 C0 0.33 0 0.66 0 1 C-0.9075 1.12375 -1.815 1.2475 -2.75 1.375 C-5.87801553 1.80432631 -5.87801553 1.80432631 -7.9375 3.0625 C-10.95297586 4.43317084 -13.73661871 4.12551466 -17 4 C-16 2 -16 2 -13 0.875 C-8.67770912 -0.27521462 -4.44043127 -0.18124209 0 0 Z " fill="#6884A6" transform="translate(287,289)"/>
<path d="M0 0 C2.475 0.99 2.475 0.99 5 2 C4.34 3.65 3.68 5.3 3 7 C0.36 6.67 -2.28 6.34 -5 6 C-5 5.67 -5 5.34 -5 5 C-3.35 4.67 -1.7 4.34 0 4 C0 2.68 0 1.36 0 0 Z " fill="#345B92" transform="translate(227,105)"/>
<path d="M0 0 C0.66 0.99 1.32 1.98 2 3 C1.34 4.32 0.68 5.64 0 7 C-4 7 -4 7 -6 6 C-4.02 4.02 -2.04 2.04 0 0 Z " fill="#539BCA" transform="translate(335,350)"/>
<path d="M0 0 C0.33 1.32 0.66 2.64 1 4 C0.01 4 -0.98 4 -2 4 C-2.33 5.65 -2.66 7.3 -3 9 C-3.99 9 -4.98 9 -6 9 C-5.52797514 4.75177626 -3.03344482 2.80010291 0 0 Z " fill="#375986" transform="translate(376,310)"/>
<path d="M0 0 C0.99 0.33 1.98 0.66 3 1 C0.69 3.64 -1.62 6.28 -4 9 C-4.66 8.67 -5.32 8.34 -6 8 C-5.67 7.01 -5.34 6.02 -5 5 C-4.34 5 -3.68 5 -3 5 C-2.87625 4.360625 -2.7525 3.72125 -2.625 3.0625 C-2.41875 2.381875 -2.2125 1.70125 -2 1 C-1.34 0.67 -0.68 0.34 0 0 Z " fill="#3F608D" transform="translate(338,267)"/>
<path d="M0 0 C0.99 0 1.98 0 3 0 C3 0.66 3 1.32 3 2 C4.65 1.67 6.3 1.34 8 1 C8 1.66 8 2.32 8 3 C7.34 3 6.68 3 6 3 C6 3.66 6 4.32 6 5 C4.02 5.99 4.02 5.99 2 7 C2 5.35 2 3.7 2 2 C1.01 1.67 0.02 1.34 -1 1 C-0.67 0.67 -0.34 0.34 0 0 Z " fill="#3D8FCC" transform="translate(145,178)"/>
<path d="M0 0 C0.33 1.32 0.66 2.64 1 4 C0.34 4 -0.32 4 -1 4 C-1.33 5.32 -1.66 6.64 -2 8 C-3.32 7.34 -4.64 6.68 -6 6 C-4.02 4.02 -2.04 2.04 0 0 Z " fill="#4B9ACC" transform="translate(314,371)"/>
<path d="M0 0 C4.62 0.99 9.24 1.98 14 3 C14 3.33 14 3.66 14 4 C4.58997722 4.3690205 4.58997722 4.3690205 0 2 C0 1.34 0 0.68 0 0 Z " fill="#559CCD" transform="translate(169,355)"/>
<path d="M0 0 C-0.54723683 3.37462715 -1.0549 5.08235 -3 8 C-3.66 7.67 -4.32 7.34 -5 7 C-5 5.02 -5 3.04 -5 1 C-2 0 -2 0 0 0 Z " fill="#328ACC" transform="translate(177,339)"/>
<path d="M0 0 C0 3.20395416 -0.74335022 5.09399739 -2 8 C-3.65 8 -5.3 8 -7 8 C-6.02133662 6.85373678 -5.04205413 5.70800212 -4.0625 4.5625 C-3.51722656 3.92441406 -2.97195312 3.28632813 -2.41015625 2.62890625 C-1.63204305 1.73008851 -0.84063472 0.84063472 0 0 Z " fill="#62A6CD" transform="translate(257,241)"/>
<path d="M0 0 C0.33 0.66 0.66 1.32 1 2 C1.99 1.67 2.98 1.34 4 1 C4 1.99 4 2.98 4 4 C-1.75 5.125 -1.75 5.125 -4 4 C-2.68 2.68 -1.36 1.36 0 0 Z " fill="#0772BF" transform="translate(160,341)"/>
<path d="M0 0 C0.66 1.32 1.32 2.64 2 4 C1.01 4.33 0.02 4.66 -1 5 C-1.73323796 7.01508358 -1.73323796 7.01508358 -2 9 C-3.32 9.33 -4.64 9.66 -6 10 C-6 9.34 -6 8.68 -6 8 C-5.34 8 -4.68 8 -4 8 C-4 7.34 -4 6.68 -4 6 C-3.34 6 -2.68 6 -2 6 C-2 5.34 -2 4.68 -2 4 C-1.34 4 -0.68 4 0 4 C0 2.68 0 1.36 0 0 Z M2 2 C2.99 2.495 2.99 2.495 4 3 C3.01 3.495 3.01 3.495 2 4 C2 3.34 2 2.68 2 2 Z " fill="#5A769C" transform="translate(377,208)"/>
<path d="M0 0 C0 0.99 0 1.98 0 3 C-1.32 3 -2.64 3 -4 3 C-4.33 4.32 -4.66 5.64 -5 7 C-6.32 7.33 -7.64 7.66 -9 8 C-8.34 6.68 -7.68 5.36 -7 4 C-6.34 4 -5.68 4 -5 4 C-5 3.34 -5 2.68 -5 2 C-2 0 -2 0 0 0 Z " fill="#59759B" transform="translate(229,177)"/>
<path d="M0 0 C4.455 0.99 4.455 0.99 9 2 C9 2.66 9 3.32 9 4 C5.7 3.67 2.4 3.34 -1 3 C-0.67 2.01 -0.34 1.02 0 0 Z " fill="#2D4A7F" transform="translate(242,113)"/>
<path d="M0 0 C0.33 0.99 0.66 1.98 1 3 C-1.97 5.475 -1.97 5.475 -5 8 C-4.74438677 5.6568787 -4.40729228 3.32156597 -4 1 C-2 0 -2 0 0 0 Z " fill="#4C6A94" transform="translate(221,109)"/>
<path d="M0 0 C0.33 1.32 0.66 2.64 1 4 C0.34 4 -0.32 4 -1 4 C-1.33 4.99 -1.66 5.98 -2 7 C-3.65 7 -5.3 7 -7 7 C-4.66666667 4.66666667 -2.33333333 2.33333333 0 0 Z " fill="#559CCC" transform="translate(301,384)"/>
<path d="M0 0 C0.33 0.66 0.66 1.32 1 2 C0.0625 4.625 0.0625 4.625 -1 7 C-2.65 7 -4.3 7 -6 7 C-4.02 4.69 -2.04 2.38 0 0 Z " fill="#5EA4CC" transform="translate(176,322)"/>
<path d="M0 0 C0.99 0 1.98 0 3 0 C2.38722388 2.96175123 1.74627478 4.38058783 0 7 C-0.66 7 -1.32 7 -2 7 C-2 5.35 -2 3.7 -2 2 C-1.34 2 -0.68 2 0 2 C0 1.34 0 0.68 0 0 Z " fill="#388DC6" transform="translate(189,325)"/>
<path d="M0 0 C2.97 0.495 2.97 0.495 6 1 C5 3 4 5 3 7 C2.34 6.67 1.68 6.34 1 6 C1.33 5.01 1.66 4.02 2 3 C1.34 3 0.68 3 0 3 C0 2.01 0 1.02 0 0 Z " fill="#358ECB" transform="translate(255,256)"/>
<path d="M0 0 C0.66 0.33 1.32 0.66 2 1 C0.68 3.31 -0.64 5.62 -2 8 C-3.32 8 -4.64 8 -6 8 C-6 7.34 -6 6.68 -6 6 C-5.34 6 -4.68 6 -4 6 C-4 5.34 -4 4.68 -4 4 C-3.34 4 -2.68 4 -2 4 C-2 3.34 -2 2.68 -2 2 C-1.34 2 -0.68 2 0 2 C0 1.34 0 0.68 0 0 Z " fill="#6A84A5" transform="translate(343,244)"/>
<path d="M0 0 C0.66 0 1.32 0 2 0 C1.44225728 3.23490776 0.62788492 4.97855006 -2 7 C-2.99 7 -3.98 7 -5 7 C-5 6.34 -5 5.68 -5 5 C-4.34 5 -3.68 5 -3 5 C-3 4.34 -3 3.68 -3 3 C-2.34 3 -1.68 3 -1 3 C-0.67 2.01 -0.34 1.02 0 0 Z " fill="#5B7396" transform="translate(350,237)"/>
<path d="M0 0 C0.66 0.66 1.32 1.32 2 2 C-1.465 4.97 -1.465 4.97 -5 8 C-4.64950425 4.75791433 -4.43778819 3.38472296 -1.9375 1.1875 C-1.298125 0.795625 -0.65875 0.40375 0 0 Z " fill="#224678" transform="translate(367,238)"/>
<path d="M0 0 C2.83022097 3.99560608 1.76210446 7.42737323 1 12 C-1.09440189 8.59659693 -1.25797575 5.95562822 -1 2 C-0.67 1.34 -0.34 0.68 0 0 Z " fill="#398CC4" transform="translate(121,213)"/>
<path d="M0 0 C0.66 0.33 1.32 0.66 2 1 C0.6875 3 0.6875 3 -1 5 C-1.99 5 -2.98 5 -4 5 C-4.33 5.99 -4.66 6.98 -5 8 C-5.6875 6.1875 -5.6875 6.1875 -6 4 C-4.15840327 1.51384442 -2.99529289 0.99843096 0 0 Z " fill="#3588C1" transform="translate(269,204)"/>
<path d="M0 0 C0.99 0.33 1.98 0.66 3 1 C2.01 1.495 2.01 1.495 1 2 C1 2.66 1 3.32 1 4 C0.34 4 -0.32 4 -1 4 C-1 4.66 -1 5.32 -1 6 C-1.66 6 -2.32 6 -3 6 C-3 6.66 -3 7.32 -3 8 C-3.66 8 -4.32 8 -5 8 C-5 6.68 -5 5.36 -5 4 C-4.360625 3.71125 -3.72125 3.4225 -3.0625 3.125 C-0.84793921 2.17176549 -0.84793921 2.17176549 0 0 Z " fill="#45658A" transform="translate(268,153)"/>
<path d="M0 0 C1.32 0 2.64 0 4 0 C4 0.99 4 1.98 4 3 C4.66 3.33 5.32 3.66 6 4 C5.34 4 4.68 4 4 4 C4 4.66 4 5.32 4 6 C2.0625 5.1875 2.0625 5.1875 0 4 C-0.33 3.01 -0.66 2.02 -1 1 C-0.67 0.67 -0.34 0.34 0 0 Z " fill="#2F8CD4" transform="translate(181,330)"/>
<path d="M0 0 C0.66 0.33 1.32 0.66 2 1 C1.2890625 2.953125 1.2890625 2.953125 0 5 C-2.1640625 5.609375 -2.1640625 5.609375 -4.625 5.75 C-5.44226563 5.80671875 -6.25953125 5.8634375 -7.1015625 5.921875 C-7.72804688 5.94765625 -8.35453125 5.9734375 -9 6 C-8.67 5.34 -8.34 4.68 -8 4 C-6.02 4 -4.04 4 -2 4 C-2 3.34 -2 2.68 -2 2 C-1.34 2 -0.68 2 0 2 C0 1.34 0 0.68 0 0 Z " fill="#6C87A7" transform="translate(300,287)"/>
<path d="M0 0 C1 2 1 2 0.4375 4 C-1.57302108 6.79724672 -3.74418077 7.15065585 -7 8 C-6.02133662 6.85373678 -5.04205413 5.70800212 -4.0625 4.5625 C-3.51722656 3.92441406 -2.97195312 3.28632813 -2.41015625 2.62890625 C-1.63204305 1.73008851 -0.84063472 0.84063472 0 0 Z " fill="#6EAED0" transform="translate(216,282)"/>
<path d="M0 0 C0.66 0.99 1.32 1.98 2 3 C1.67 3.99 1.34 4.98 1 6 C-0.98 6 -2.96 6 -5 6 C-3.35 4.02 -1.7 2.04 0 0 Z " fill="#4F99CB" transform="translate(307,378)"/>
<path d="M0 0 C1 2 1 2 0.4375 4 C-1.57302108 6.79724672 -3.74418077 7.15065585 -7 8 C-6.02133662 6.85373678 -5.04205413 5.70800212 -4.0625 4.5625 C-3.51722656 3.92441406 -2.97195312 3.28632813 -2.41015625 2.62890625 C-1.63204305 1.73008851 -0.84063472 0.84063472 0 0 Z " fill="#79B4D2" transform="translate(163,335)"/>
<path d="M0 0 C0.99 0 1.98 0 3 0 C3 0.99 3 1.98 3 3 C3.66 3 4.32 3 5 3 C4.67 3.99 4.34 4.98 4 6 C3.01 6 2.02 6 1 6 C0.67 4.02 0.34 2.04 0 0 Z " fill="#3E94CD" transform="translate(152,340)"/>
<path d="M0 0 C1 2 1 2 0.4375 4 C-1.57302108 6.79724672 -3.74418077 7.15065585 -7 8 C-6.34 7.01 -5.68 6.02 -5 5 C-4.34 5 -3.68 5 -3 5 C-2.690625 4.360625 -2.38125 3.72125 -2.0625 3.0625 C-1 1 -1 1 0 0 Z " fill="#70ADCD" transform="translate(184,314)"/>
<path d="M0 0 C0.66 0 1.32 0 2 0 C2 1.32 2 2.64 2 4 C1.34 4.66 0.68 5.32 0 6 C0.33 6.66 0.66 7.32 1 8 C0.01 8 -0.98 8 -2 8 C-2.20086443 4.28400809 -2.1519437 3.22791555 0 0 Z " fill="#0C72BF" transform="translate(258,241)"/>
<path d="M0 0 C0.66 0 1.32 0 2 0 C1.1875 2.4375 1.1875 2.4375 0 5 C-0.99 5.33 -1.98 5.66 -3 6 C-3.33 6.99 -3.66 7.98 -4 9 C-3.67 7.02 -3.34 5.04 -3 3 C-2.01 2.67 -1.02 2.34 0 2 C0 1.34 0 0.68 0 0 Z " fill="#08336A" transform="translate(174,204)"/>
<path d="M0 0 C0.33 1.32 0.66 2.64 1 4 C-0.32 4.99 -1.64 5.98 -3 7 C-3.33 5.02 -3.66 3.04 -4 1 C-2.68 0.67 -1.36 0.34 0 0 Z " fill="#446790" transform="translate(201,128)"/>
<path d="M0 0 C3 1 3 1 6 3 C4.02 3.66 2.04 4.32 0 5 C-0.5625 3.0625 -0.5625 3.0625 -1 1 C-0.67 0.67 -0.34 0.34 0 0 Z " fill="#0673BE" transform="translate(191,362)"/>
<path d="M0 0 C-0.66 0 -1.32 0 -2 0 C-2 0.66 -2 1.32 -2 2 C-4.64 2 -7.28 2 -10 2 C-6.80505194 -1.19494806 -4.22040044 -1.35655728 0 0 Z " fill="#06306A" transform="translate(301,293)"/>
<path d="M0 0 C0.99 0 1.98 0 3 0 C2.625 2.9375 2.625 2.9375 2 6 C1.01 6.495 1.01 6.495 0 7 C0 4.69 0 2.38 0 0 Z " fill="#1F82C6" transform="translate(224,288)"/>
<path d="M0 0 C2.875 -0.125 2.875 -0.125 6 0 C6.66 0.66 7.32 1.32 8 2 C5.36 2.33 2.72 2.66 0 3 C0 2.01 0 1.02 0 0 Z " fill="#0974C2" transform="translate(288,203)"/>
<path d="M0 0 C0.33 1.32 0.66 2.64 1 4 C-0.32 4 -1.64 4 -3 4 C-3 4.66 -3 5.32 -3 6 C-3.99 6.33 -4.98 6.66 -6 7 C-6 6.34 -6 5.68 -6 5 C-5.34 5 -4.68 5 -4 5 C-4 4.34 -4 3.68 -4 3 C-3.34 3 -2.68 3 -2 3 C-2 2.34 -2 1.68 -2 1 C-1.34 0.67 -0.68 0.34 0 0 Z " fill="#526E94" transform="translate(177,200)"/>
<path d="M0 0 C0.99 0 1.98 0 3 0 C3.33 0.99 3.66 1.98 4 3 C3.01 4.485 3.01 4.485 2 6 C1.34 6 0.68 6 0 6 C0 4.02 0 2.04 0 0 Z " fill="#358BC4" transform="translate(153,173)"/>
<path d="M0 0 C0.33 0.66 0.66 1.32 1 2 C-1.46153846 5.81538462 -1.46153846 5.81538462 -4.1875 6.75 C-4.785625 6.8325 -5.38375 6.915 -6 7 C-6 6.34 -6 5.68 -6 5 C-5.34 5 -4.68 5 -4 5 C-4 4.34 -4 3.68 -4 3 C-2 1.375 -2 1.375 0 0 Z " fill="#6881A6" transform="translate(256,148)"/>
</svg>
